<?xml version="1.0" encoding="utf-8"?>
<!-- Generator: Adobe Illustrator 22.1.0, SVG Export Plug-In . SVG Version: 6.00 Build 0)  -->
<svg version="1.1" id="Layer_1" xmlns="http://www.w3.org/2000/svg" xmlns:xlink="http://www.w3.org/1999/xlink" x="0px" y="0px"
	 viewBox="0 0 512 512" style="enable-background:new 0 0 512 512;" xml:space="preserve">
<g>
	<g>
		<path d="M206,0C108.8,0,29.7,79.1,29.7,176.3c0,9.4,7.6,17.1,17.1,17.1s17.1-7.6,17.1-17.1c0-78.4,63.8-142.2,142.2-142.2
			s142.2,63.8,142.2,142.2c0,51.3-20,70.7-47.7,97.8c-30.2,29.5-67.7,66.1-67.7,145.2c0,32.3-26.3,58.5-58.6,58.5
			c-32.3,0-58.5-26.2-58.5-58.5c0-9.4-7.6-17.1-17.1-17.1s-17.1,7.6-17.1,17.1c0,51.1,41.6,92.7,92.7,92.7s92.7-41.6,92.7-92.7
			c0-64.7,29.2-93.2,57.5-120.9c28.5-27.8,57.9-56.5,57.9-122.1C382.3,79.1,303.2,0,206,0z"/>
	</g>
</g>
<g>
	<g>
		<path d="M214.2,259.8c-5.1-19.8-17.6-36.5-35.1-46.9c-14.3-8.5-30.6-12-47.1-10.3c-9.4,1-16.2,9.4-15.2,18.8
			c1,9.4,9.2,16.1,18.8,15.2c9.1-0.9,18.2,1,26.1,5.8c9.8,5.8,16.7,15,19.5,26c2.8,11,1.2,22.5-4.6,32.2
			c-5.8,9.8-15.1,16.7-26.1,19.5c-11,2.8-22.4,1.2-32.2-4.6c-8.1-4.8-18.6-2.1-23.4,6c-4.8,8.1-2.1,18.6,6,23.4
			c12,7.1,25.4,10.8,39,10.8c6.4,0,12.8-0.8,19.1-2.4c19.8-5.1,36.5-17.6,47-35.2C216.4,300.3,219.3,279.7,214.2,259.8z"/>
	</g>
</g>
<g>
	<g>
		<path d="M214.9,79.6c-54.9,0-99.6,44.7-99.6,99.6c0,9.4,7.6,17.1,17.1,17.1s17.1-7.6,17.1-17.1c0-36.1,29.4-65.5,65.4-65.5
			c36.1,0,65.4,29.4,65.4,65.5c0,9.4,7.6,17.1,17.1,17.1s17.1-7.6,17.1-17.1C314.5,124.3,269.8,79.6,214.9,79.6z"/>
	</g>
</g>
<g>
	<g>
		<path d="M149.2,172.4c-0.3-9.4-8.1-16.8-17.6-16.5c-9.4,0.3-16.8,8.2-16.5,17.6l1.5,45.4c0.3,9.2,7.9,16.5,17.1,16.5
			c0.2,0,0.4,0,0.6,0c9.4-0.3,16.8-8.2,16.5-17.6L149.2,172.4z"/>
	</g>
</g>
<g>
	<g>
		<path d="M417.8,184.6c0,6.7,5.5,12.2,12.2,12.2h45.8c6.7,0,12.2-5.5,12.2-12.2c0-6.7-5.5-12.2-12.2-12.2H430
			C423.2,172.4,417.8,177.9,417.8,184.6z"/>
	</g>
</g>
<g>
	<g>
		<path d="M372.9,325.5c-4.8,4.8-4.8,12.5,0,17.3l22.8,22.8c4.8,4.8,12.5,4.8,17.3,0c2.4-2.4,3.6-5.5,3.6-8.6s-1.2-6.3-3.6-8.6
			l-22.8-22.8C385.5,320.8,377.7,320.8,372.9,325.5z"/>
	</g>
</g>
<g>
	<g>
		<path d="M395.7,3.6l-22.8,22.8c-4.8,4.8-4.8,12.5,0,17.3c4.8,4.8,12.5,4.8,17.3,0L413,20.9c2.4-2.4,3.6-5.5,3.6-8.6
			S415.4,6,413,3.6C408.2-1.2,400.5-1.2,395.7,3.6z"/>
	</g>
</g>
</svg>
