<?xml version="1.0" encoding="utf-8"?>
<!-- Generator: Adobe Illustrator 22.1.0, SVG Export Plug-In . SVG Version: 6.00 Build 0)  -->
<svg version="1.1" id="Layer_1" xmlns="http://www.w3.org/2000/svg" xmlns:xlink="http://www.w3.org/1999/xlink" x="0px" y="0px"
	 viewBox="0 0 512 512" style="enable-background:new 0 0 512 512;" xml:space="preserve">
<path d="M420,60.1l-49.4,49.4l0-60.5H54.9v424.9h315.7V219l104.2-104.2c15.1-15.1,15.1-39.6,0-54.7S435.1,45,420,60.1z M71.9,453.9
	L71.6,66.1h281.9v60.5l-117,117c-0.1,0.1-0.1,0.2-0.2,0.3c-0.6,0.7-1.2,1.5-1.6,2.3c0,0.1-0.1,0.2-0.2,0.3l-0.1,0.1L209,314.8
	c-1.7,4.4,0.6,9.3,5,11c1.9,0.7,4.1,0.7,6,0l68.3-25.6l0.1-0.1c0.1,0,0.2-0.1,0.3-0.2c0.9-0.4,1.7-0.9,2.3-1.6
	c0.1-0.1,0.2-0.1,0.3-0.2l62.2-62.2v217.8H71.9z M245.9,265l23.9,23.9l-38.3,14.3L245.9,265z M285.3,280.2l-30.6-30.6l128.7-128.7
	l30.6,30.6L285.3,280.2z M426.1,139.4l-30.6-30.6L409,95.2l30.6,30.6L426.1,139.4z M462.7,102.7l-11,11l-30.6-30.6l11-11
	c8.6-8.3,22.3-8.1,30.6,0.5C470.8,81,470.8,94.3,462.7,102.7z"/>
<path d="M106.1,364.5h59.7v17.1h-59.7V364.5z"/>
<path d="M106.1,296.2h85.3v17.1h-85.3V296.2z"/>
<path d="M106.1,227.9h76.8V245h-76.8V227.9z"/>
<path d="M140.2,159.7h136.5v17.1H140.2V159.7z"/>
<path d="M199.9,227.9H217V245h-17.1V227.9z"/>
<path d="M106.1,159.7h17.1v17.1h-17.1V159.7z"/>
<path d="M285.3,364.5h17.1v17.1h-17.1V364.5z"/>
<path d="M182.9,364.5h85.3v17.1h-85.3V364.5z"/>
</svg>
