<?xml version="1.0" encoding="utf-8"?>
<!-- Generator: Adobe Illustrator 22.1.0, SVG Export Plug-In . SVG Version: 6.00 Build 0)  -->
<svg version="1.1" id="Layer_1" xmlns="http://www.w3.org/2000/svg" xmlns:xlink="http://www.w3.org/1999/xlink" x="0px" y="0px"
	 viewBox="0 0 26 26" style="enable-background:new 0 0 26 26;" xml:space="preserve">
<style type="text/css">
	.st0{fill:#DD6461;}
	.st1{fill:#613433;}
	.st2{fill:#AB4F4F;}
</style>
<title>logo copy</title>
<desc>Created with Sketch.</desc>
<g id="Symbols">
	<g id="Header" transform="translate(-2.000000, -8.000000)">
		<g id="Group-9">
			<g id="logo-copy" transform="translate(0.000000, 6.000000)">
				<g id="Group" transform="translate(0.194244, 0.189831)">
					
						<g id="hubert" transform="translate(15.001800, 14.706145) rotate(-11.000000) translate(-15.001800, -14.706145) translate(2.353151, 2.600882)">
						<path id="head" class="st0" d="M16.5,0.3c1.4,0,3.1,1,3.8,2.3l4.2,7.4c0.7,1.3,0.7,3.3,0,4.5l-4.1,7.3
							c-0.7,1.3-2.4,2.3-3.8,2.3l-8.3,0c-1.4,0-3.1-1-3.8-2.3l-4.2-7.4c-0.7-1.3-0.7-3.3,0-4.5l4.1-7.3c0.7-1.3,2.4-2.3,3.8-2.3
							L16.5,0.3L16.5,0.3L16.5,0.3L16.5,0.3z"/>
						<path id="eye-left" class="st1" d="M6.8,12c0.7,0,1.3-0.6,1.3-1.3S7.5,9.4,6.8,9.4S5.5,10,5.5,10.7S6.1,12,6.8,12L6.8,12
							L6.8,12L6.8,12z"/>
						<path id="eye-right" class="st1" d="M18.1,12c0.7,0,1.3-0.6,1.3-1.3c0-0.7-0.6-1.3-1.3-1.3s-1.3,0.6-1.3,1.3
							C16.8,11.4,17.4,12,18.1,12L18.1,12L18.1,12L18.1,12z"/>
						<path id="mouth" class="st1" d="M10.5,18.9c1,0.4,2.9,0.4,3.9,0c1.2-0.5,2.1-1.5,2.7-2.6c0.4-1-0.5-1.9-1.6-1.9h-6
							c-1.1,0-2,0.9-1.6,1.9C8.3,17.5,9.3,18.4,10.5,18.9L10.5,18.9L10.5,18.9L10.5,18.9z"/>
						<path id="tongue" class="st2" d="M10.1,18.4c0.3,0.2,0.9,0.4,1.2,0.5c0.7,0.1,1.5,0.1,2.1,0c0.4-0.1,0.9-0.3,1.2-0.5
							c0.4-0.2,0.7-0.5,1-0.8c0.2-0.3,0.2-0.7-0.1-1c-0.7-0.5-1.6-0.9-2.6-1c-0.4,0-1,0-1.3,0c-1,0.1-1.9,0.5-2.6,1
							c-0.3,0.2-0.3,0.7-0.1,1C9.4,17.9,9.8,18.2,10.1,18.4L10.1,18.4L10.1,18.4L10.1,18.4z"/>
					</g>
				</g>
			</g>
		</g>
	</g>
</g>
</svg>
