<?xml version="1.0" encoding="utf-8"?>
<!-- Generator: Adobe Illustrator 22.1.0, SVG Export Plug-In . SVG Version: 6.00 Build 0)  -->
<svg version="1.1" id="Layer_1" xmlns="http://www.w3.org/2000/svg" xmlns:xlink="http://www.w3.org/1999/xlink" x="0px" y="0px"
	 viewBox="0 0 230 230" style="enable-background:new 0 0 230 230;" xml:space="preserve">
<style type="text/css">
	.st0{opacity:0.3;}
	.st1{fill:#F79520;}
	.st2{fill:#FFDBB5;}
	.st3{fill:#30302F;}
	.st4{fill:#FFFFFF;}
</style>
<g>
	<g>
		<g class="st0">
			<path class="st1" d="M155.8,22.7L155.8,22.7L155.8,22.7L155.8,22.7z"/>
		</g>
		<g>
			<path class="st2" d="M155.8,22.7L155.8,22.7L155.8,22.7L155.8,22.7l-10.9,16.8l0,0l0,0c3.5,2.1,5.8,6,5.8,10.3c0,0.2,0,0.4,0,0.5
				v0.2l0,0l0,0l0,0c0,0.2,0,0.4,0,0.5c0,0.2,0,0.4,0,0.5v0.2c0,0.2,0,0.4-0.2,0.5l-0.2,0.4v0.4v0.4l-0.2,0.4l0,0
				c0,0.2-0.2,0.4-0.2,0.5l-0.2,0.4c0,0.2-0.2,0.4-0.2,0.5c0,0.2-0.2,0.4-0.4,0.5c-0.2,0.2-0.2,0.4-0.4,0.5
				c-0.2,0.2-0.2,0.4-0.4,0.5l-0.4,0.4c-0.2,0.2-0.2,0.4-0.4,0.4c-0.2,0.4-0.5,0.5-0.7,0.9l-0.4,0.4l-0.2,0.2l-0.4,0.4
				c-0.4,0.2-0.7,0.5-1.1,0.7c-0.2,0.2-0.4,0.2-0.5,0.4s-0.4,0.2-0.5,0.2s-0.4,0.2-0.5,0.2s-0.4,0.2-0.5,0.2s-0.4,0.2-0.5,0.2
				s-0.4,0.2-0.5,0.2c0,0.4-0.2,0.4-0.4,0.4h-0.2c-0.2,0-0.4,0-0.5,0.2l0,0c-0.2,0-0.4,0-0.5,0.2h-0.2c-0.2,0-0.4,0-0.5,0
				c-0.4,0-0.9,0-1.2,0c-6,0-10.9-4.2-11.9-10l0,0l0,0l0,0l0,0h-0.2c-0.7,0.4-1.4,0.5-2.1,0.7l0,0c-0.4,0.2-0.9,0.4-1.2,0.4
				c-0.2,0-0.4,0.2-0.7,0.2c-0.2,0-0.5,0.2-0.7,0.2l-0.4,0.2h-0.2c-0.4,0-0.5,0.2-0.9,0.2c-0.4,0.2-0.9,0.2-1.2,0.4
				c-0.4,0-0.7,0.2-1.2,0.2l0,0l0,0l0,0h-0.4c-0.4,0-0.7-0.2-1.2-0.2H116c-0.2,0-0.5-0.2-0.7-0.2l0,0c-0.2,0-0.5-0.2-0.7-0.2
				c-0.4,0-0.7-0.2-1.1-0.4c-0.2,0-0.5-0.2-0.7-0.2h-0.2h-0.2l0,0c-0.2,0-0.4-0.2-0.5-0.2h-0.2l0,0l0,0l0,0c-0.2,0-0.5-0.2-0.7-0.2
				c-0.2,0-0.4-0.2-0.5-0.2s-0.4-0.2-0.7-0.2l-0.4-0.2c-0.2,0-0.4-0.2-0.7-0.2l-0.4-0.2l0,0l0,0h-0.2c-0.2,0-0.4-0.2-0.5-0.2
				c-0.2-0.2-0.5-0.2-0.7-0.4h-0.2l0,0c-0.2,0-0.4-0.2-0.5-0.2c-0.2-0.2-0.5-0.2-0.7-0.4l-0.4-0.2c-0.4-0.2-0.7-0.4-0.9-0.5
				l-0.4-0.2c-0.4-0.2-0.5-0.4-0.9-0.5l-0.2-0.2c-0.2-0.2-0.5-0.4-0.7-0.4l0,0c-0.2-0.2-0.5-0.2-0.7-0.4c-0.4-0.2-0.5-0.4-0.9-0.5
				l-0.2-0.5l-0.4-0.2l-0.4-0.4l-0.4-0.2c-0.2-0.2-0.4-0.2-0.5-0.4h-0.2l0,0l0,0l0,0l0,0h-0.2l-0.4-0.4c-0.4-0.2-0.5-0.4-0.9-0.7
				c-0.2-0.2-0.4-0.2-0.5-0.4l0,0l-0.2-0.2l0,0l-0.5-0.5L95.8,44c-0.5-0.4-1.1-0.9-1.6-1.2c-0.4-0.4-0.5-0.5-0.9-0.9
				c-0.4-0.4-0.9-0.9-1.2-1.2l-0.4-0.2l-0.4-0.4l-0.2-0.2l-0.2-0.2l-0.2-0.2c-0.2-0.2-0.4-0.4-0.4-0.5c-0.2-0.2-0.4-0.4-0.5-0.5l0,0
				v-0.2l0,0c-0.9-1.1-1.8-2.3-2.6-3.3c-1.8-2.5-3.3-4.9-4.7-7.5c-0.5-0.9-1.1-1.9-1.4-3c-0.2-0.2-0.2-0.4-0.4-0.7v-0.2L80,23.4
				l-0.2-0.4c-0.2-0.2-0.2-0.4-0.4-0.5v-0.2c-0.2,0.4-0.4,0.5-0.5,0.9c-0.2,0.2-0.2,0.4-0.4,0.5c-0.4,0.9-0.9,1.8-1.2,2.6
				c-0.2,0.2-0.2,0.4-0.2,0.5c0,0.2-0.2,0.4-0.2,0.5v0.2l0,0v0.2c-0.2,0.5-0.4,0.9-0.5,1.4c-0.2,0.4-0.4,0.7-0.4,1.2
				c-0.2,0.4-0.2,0.7-0.4,0.9c-0.4,0.9-0.5,1.9-0.9,2.8l-0.4,1.1c-0.2,0.9-0.4,1.6-0.5,2.5V38c0,0.2-0.2,0.5-0.2,0.7l0,0
				c0,0.4-0.2,0.9-0.2,1.2v0.4c-0.2,0.9-0.4,1.8-0.4,2.6c0,0.2,0,0.4,0,0.5v0.2v0.2v0.4v0.4v0.2v0.2V45v0.2c0,0.2,0,0.5,0,0.7v0.4
				v0.4v0.4c0,0.2,0,0.5,0,0.7c0,0.4,0,0.7,0,0.9l0,0c0,0.4,0,0.9,0,1.2c0,0.4,0,0.7,0,1.1s0,0.7,0,1.1c0,0.9,0,1.6,0.2,2.5
				c0,0.4,0,0.5,0,0.9c0,0.2,0,0.5,0,0.7c0,0.4,0,0.7,0.2,1.1c0,0.4,0.2,0.7,0.2,1.1v0.2c0,0.4,0.2,0.7,0.2,1.1s0.2,0.7,0.2,1.2
				c0,0.4,0.2,0.7,0.2,1.2c0,0.2,0,0.4,0.2,0.7h0.2l0,0c8.8,2.6,17,6,24.9,10.2c0.4,0.2,0.5,0.4,0.9,0.5c6.3,3.3,12.1,7.2,17.7,11.4
				c5.8-4.4,12.1-8.4,18.6-11.9c0.2-0.2,0.5-0.4,0.7-0.4c7.4-3.9,15.1-7,23.3-9.5h0.2c0-0.4,0.2-0.7,0.2-0.9s0.2-0.5,0.2-0.7
				c0.5-2.8,1.1-5.6,1.1-8.6v-0.4v-0.4c0-0.4,0-0.5,0-0.9c0-0.5,0-1.1,0-1.8v-0.4c0-0.4,0-0.5,0-0.9v-0.4v-0.4c0-0.2,0-0.4,0-0.5
				c0-0.2,0-0.4,0-0.5c0-0.2,0-0.4,0-0.7v-0.4V45v-0.2c0-0.2,0-0.4,0-0.5c0-0.2,0-0.4,0-0.5v-0.4v-0.4l0,0c0-0.2,0-0.4,0-0.5
				c0-0.4,0-0.5-0.2-0.9v-0.2v-0.2c0-0.4-0.2-0.7-0.2-1.1c0-0.2,0-0.4,0-0.5c0-0.2,0-0.4-0.2-0.5c0-0.2,0-0.4-0.2-0.5v-0.2v-0.2
				c0-0.2-0.2-0.5-0.2-0.7s-0.2-0.5-0.2-0.7s-0.2-0.5-0.2-0.7l0,0c0-0.2,0-0.4-0.2-0.5v-0.4V35c0-0.2-0.2-0.4-0.2-0.5v-0.2l0,0l0,0
				c0-0.2-0.2-0.4-0.2-0.5c0-0.2-0.2-0.5-0.2-0.7l-0.2-0.4c0-0.2-0.2-0.4-0.2-0.5c0-0.2-0.2-0.4-0.2-0.5l-0.2-0.4
				c0-0.2-0.2-0.4-0.2-0.7l-0.9-0.7l-0.2-0.2v-0.2v-0.2l0,0l0,0l0,0c0-0.2-0.2-0.4-0.2-0.5c0-0.2-0.2-0.4-0.2-0.5
				c-0.2-0.5-0.4-1.1-0.5-1.4c-0.2-0.5-0.4-0.9-0.7-1.4l-0.2-0.2l-0.2-0.4l-0.2-0.5c-0.2-0.2-0.2-0.4-0.4-0.5l-0.2-0.4l-0.2-0.2
				L155.8,22.7"/>
		</g>
		<g>
			<path class="st3" d="M121.6,62.2C121.6,62.2,121.6,62.4,121.6,62.2c0,0.2,0,0.4,0,0.4c-0.4,3.5-0.9,6.8-1.9,10
				c-0.5,1.8-1.2,3.5-1.9,5.1c-0.9-1.9-1.6-3.9-2.3-6c-0.9-2.8-1.4-5.8-1.8-8.9c0-0.2,0-0.4,0-0.5l0,0c0-2.1,1.8-4,4-4
				c1.6,0,3,1.1,3.7,2.3C121.6,61.1,121.6,61.7,121.6,62.2z"/>
		</g>
		<g>
			<path class="st4" d="M150.7,49.9c0,0.2,0,0.4,0,0.5v0.2l0,0l0,0l0,0c0,0.2,0,0.4,0,0.5c0,0.2,0,0.4,0,0.5v0.2
				c0,0.2,0,0.4-0.2,0.5c0,0.2,0,0.4-0.2,0.4c0,0,0,0.2,0,0.4s0,0.2,0,0.4s0,0.4-0.2,0.4l0,0c0,0.2-0.2,0.4-0.2,0.5
				c0,0.2-0.2,0.2-0.2,0.4s-0.2,0.4-0.2,0.5c0,0.2-0.2,0.4-0.4,0.5c-0.2,0.2-0.2,0.4-0.4,0.5c-0.2,0.2-0.2,0.4-0.4,0.5
				c0,0.2-0.2,0.2-0.4,0.4s-0.2,0.4-0.4,0.4c-0.2,0.4-0.5,0.5-0.7,0.9c-0.2,0.2-0.4,0.4-0.4,0.4l-0.2,0.2c-0.2,0.2-0.2,0.2-0.4,0.4
				c-0.4,0.2-0.7,0.5-1.1,0.7c-0.2,0.2-0.4,0.2-0.5,0.4s-0.4,0.2-0.5,0.2s-0.4,0.2-0.5,0.2s-0.4,0.2-0.5,0.2s-0.4,0.2-0.5,0.2
				s-0.4,0.2-0.5,0.2c0,0.4-0.2,0.4-0.4,0.4h-0.2c-0.2,0-0.4,0-0.5,0.2l0,0c-0.2,0-0.4,0-0.5,0.2h-0.2c-0.2,0-0.4,0-0.5,0
				c-0.4,0-0.9,0-1.2,0c-6,0-10.9-4.2-11.9-10l0,0l0,0l0,0l0,0c-0.2-0.7-0.2-1.2-0.2-1.9c0-3.7,1.8-7.2,4.4-9.3
				c1.9-1.6,4.2-2.5,6.8-2.6c0.4,0,0.5,0,0.9,0c0.9,0,1.9,0.2,2.8,0.4c1.2,0.4,2.3,0.7,3.3,1.4c0,0,0,0,0.2,0l0,0l0,0l0,0
				C148.4,41.7,150.7,45.5,150.7,49.9z"/>
		</g>
		<g>
			<circle class="st3" cx="138.6" cy="50.1" r="5.1"/>
		</g>
		<g>
			<path class="st4" d="M108.3,49.9c0,0.7,0,1.2-0.2,1.9l0,0l0,0l0,0c0,0.4-0.2,0.7-0.2,1.1c0,0.2-0.2,0.4-0.2,0.5
				c0,0.2-0.2,0.5-0.4,0.7c0,0.2-0.2,0.2-0.2,0.4s-0.2,0.2-0.2,0.4s-0.2,0.4-0.2,0.5c0,0.2-0.2,0.2-0.2,0.4s-0.2,0.2-0.2,0.4
				s-0.2,0.2-0.2,0.4s-0.2,0.2-0.2,0.4c-0.2,0.2-0.2,0.4-0.4,0.5c-0.2,0.2-0.4,0.4-0.4,0.5c-0.4,0.2-0.4,0.2-0.5,0.4l-0.2,0.2
				c0,0.2-0.2,0.2-0.4,0.2c0,0-0.2,0.2-0.4,0.2c-0.4,0.4-0.9,0.7-1.2,1.1c-0.2,0.2-0.4,0.2-0.5,0.4c-0.2,0-0.2,0.2-0.4,0.2h-0.2
				h-0.2c-0.2,0-0.2,0.2-0.4,0.2c0,0-0.2,0-0.2,0.2c0,0-0.2,0-0.2,0.2c0,0-0.2,0-0.2,0.2c-0.2,0-0.2,0.2-0.4,0.2
				c-0.2,0-0.4,0.2-0.5,0.2c-0.2,0.2-0.5,0.2-0.9,0.2c-0.2,0-0.2,0-0.4,0c-0.2,0-0.4,0-0.4,0c-0.2,0-0.5,0-0.7,0.2
				c-0.2,0-0.2,0-0.4,0c-0.2,0-0.2,0-0.4,0h-0.2c-0.2,0-0.4,0-0.4,0c-0.4,0-0.9,0-1.2,0c-0.2,0-0.4,0-0.5,0s-0.2,0-0.4,0
				c-0.2,0-0.2,0-0.4,0c0,0,0,0-0.2,0c-0.2,0-0.4,0-0.5-0.2c-0.2,0-0.4,0-0.5-0.2c-0.4,0-0.5-0.2-0.9-0.4c-0.2,0-0.4-0.2-0.4-0.2
				c-0.2,0-0.4-0.2-0.5-0.2s-0.4-0.2-0.4-0.2l0,0c-0.2,0-0.2-0.2-0.4-0.2c-0.2,0-0.2-0.2-0.4-0.2c-0.2-0.2-0.5-0.4-0.7-0.5L89,59.4
				l0,0c-0.2-0.2-0.5-0.4-0.7-0.5c-0.2-0.2-0.2-0.2-0.4-0.4l-0.2-0.2l-0.2-0.2c-0.2-0.2-0.4-0.4-0.5-0.5l-0.2-0.2
				c-0.2-0.2-0.4-0.5-0.5-0.7c0-0.2-0.2-0.2-0.2-0.4c-0.4-0.4-0.5-0.9-0.7-1.4c0-0.2-0.2-0.4-0.2-0.5c0-0.2-0.2-0.4-0.2-0.5
				c0-0.2,0-0.2-0.2-0.4c0-0.2,0-0.2-0.2-0.4c0-0.2,0-0.2-0.2-0.4c0-0.2,0-0.4-0.2-0.4l0,0v-0.2l0,0l0,0c0-0.2,0-0.2,0-0.4
				s0-0.4-0.2-0.5c0-0.4,0-0.7-0.2-1.1v-0.2c0-0.2,0-0.4,0-0.5c0-0.2,0-0.4,0-0.5c0-0.2,0-0.2,0-0.4c0-0.4,0-0.5,0-0.7s0-0.4,0-0.5
				c0-0.5,0.2-0.9,0.4-1.4c0-0.2,0.2-0.4,0.2-0.5c0-0.2,0.2-0.4,0.2-0.7c0-0.2,0.2-0.4,0.2-0.5c0-0.2,0.2-0.4,0.2-0.5
				c0.2-0.2,0.4-0.5,0.4-0.7l0.2-0.2c0-0.2,0.2-0.4,0.4-0.4c0.2-0.2,0.2-0.4,0.4-0.4c0.2-0.2,0.2-0.4,0.4-0.4l0,0l0.2-0.2l0,0
				c0.2-0.2,0.4-0.4,0.5-0.5c0.2-0.2,0.4-0.4,0.5-0.5c0.2-0.2,0.4-0.4,0.5-0.5c0.2-0.2,0.4-0.4,0.7-0.5c0.2-0.2,0.4-0.2,0.5-0.4l0,0
				l0,0l0,0c1.8-1.1,3.9-1.6,6-1.6c3,0,5.8,1.1,7.9,3C106.7,42.9,108.3,46.2,108.3,49.9z"/>
		</g>
		<g>
			<circle class="st3" cx="96.3" cy="50.1" r="5.1"/>
		</g>
		<g>
			<path class="st1" d="M172.3,5.5L172.3,5.5L172.3,5.5h-0.2h-0.5h-0.2c-5.1,0.9-9.8,2.3-14.6,4c0,0-0.2,0-0.2,0.2
				c-0.4,0.2-0.7,0.2-0.9,0.4c-0.4,0.2-0.7,0.4-1.2,0.5c-0.2,0-0.4,0.2-0.4,0.2c-1.6,0.7-3.2,1.4-4.6,2.1c-0.2,0-0.2,0.2-0.4,0.2
				c-0.7,0.4-1.6,0.9-2.3,1.2c-3,1.6-5.8,3.5-8.6,5.4c-4.9-0.9-9.8-1.2-14.7-1.6c-1.9,0-4-0.2-6-0.2h-0.2c0,0,0,0-0.2,0
				c-1.4,0-2.8,0-4.4,0c-0.2,0-0.5,0-0.7,0c-5.3,0.2-10.5,0.7-15.6,1.6c-0.2,0-0.2-0.2-0.4-0.2c-2.6-1.9-5.4-3.7-8.2-5.3
				c-1.8-1.1-3.7-1.9-5.4-2.8c-0.5-0.4-1.2-0.5-1.8-0.7c-0.2,0-0.4,0-0.5-0.2c-2.5-1.1-5.1-1.9-7.7-2.8l0,0
				c-3.2-0.9-6.3-1.8-9.5-2.3l0,0H63l0,0l0,0c0,0,0,0-0.2,0l0,0l0,0h-0.2l0,0l0,0l0,0c0,0,0,0,0.2,0c0,0,0,0-0.2,0l0,0l0,0h-0.2l0,0
				l0,0l0,0c0.5,0.2,0.9,0.4,1.4,0.5c0.4,0.2,0.7,0.4,1.1,0.7c4.4,3,8.2,6.7,11.4,10.7c1.2,1.8,2.5,3.3,3.5,5.3l0,0l0,0l0,0l0,0l0,0
				c0,0,0,0,0,0.2c0,0,0,0,0,0.2c0.2,0.2,0.2,0.4,0.4,0.5c0,0.2,0.2,0.2,0.2,0.4c0,0,0,0,0.2,0l0,0c0,0,0,0-0.2,0
				c0,0.2,0.2,0.2,0.2,0.4c0,0.2,0.2,0.2,0.2,0.4c0.2,0.2,0.2,0.4,0.4,0.7c0.5,1.1,0.9,1.9,1.4,3c1.4,2.6,3,5.1,4.7,7.5
				c0.9,1.2,1.8,2.3,2.6,3.3l0,0c0,0,0,0,0,0.2l0,0c0.2,0.2,0.4,0.4,0.5,0.5c0.2,0.2,0.4,0.4,0.4,0.5c0,0,0,0,0.2,0.2l0.2,0.2
				l0.2,0.2c0.2,0.2,0.2,0.2,0.4,0.4c0.2,0.2,0.2,0.2,0.4,0.4c0.4,0.4,0.9,0.9,1.2,1.2c0.4,0.4,0.5,0.5,0.9,0.9
				c0.5,0.4,1.1,0.9,1.6,1.2c0.2,0.2,0.2,0.2,0.4,0.4s0.4,0.2,0.4,0.4l0,0l0.2,0.2l0,0c0.2,0.2,0.4,0.2,0.5,0.4
				c0.4,0.2,0.5,0.5,0.9,0.7c0.2,0.2,0.4,0.2,0.4,0.4c0,0,0,0,0.2,0l0,0l0,0l0,0l0,0c0,0,0,0,0.2,0c0.2,0.2,0.4,0.2,0.5,0.4
				c0.2,0,0.2,0.2,0.4,0.2c0.2,0.2,0.4,0.2,0.4,0.4c0.2,0,0.2,0.2,0.4,0.2c0.2,0,0.2,0.2,0.4,0.2c0.4,0.2,0.5,0.4,0.9,0.5
				c0.2,0.2,0.5,0.4,0.7,0.4l0,0c0.2,0.2,0.5,0.4,0.7,0.4l0.2,0.2c0.4,0.2,0.5,0.4,0.9,0.5c0.2,0,0.2,0.2,0.4,0.2
				c0.4,0.2,0.7,0.4,0.9,0.5c0.2,0,0.4,0.2,0.4,0.2c0.2,0.2,0.5,0.2,0.7,0.4c0.2,0,0.4,0.2,0.5,0.2l0,0c0,0,0,0,0.2,0
				c0.2,0.2,0.5,0.2,0.7,0.4c0.2,0,0.4,0.2,0.5,0.2h0.2l0,0l0,0c0.2,0,0.2,0.2,0.4,0.2c0.2,0,0.4,0.2,0.7,0.2c0.2,0,0.2,0,0.4,0.2
				c0.2,0,0.4,0.2,0.7,0.2c0.2,0,0.4,0.2,0.5,0.2s0.5,0.2,0.7,0.2l0,0l0,0l0,0c0,0,0,0,0.2,0s0.4,0.2,0.5,0.2l0,0h0.2h0.2
				c0.2,0,0.5,0.2,0.7,0.2c0.4,0.2,0.7,0.2,1.1,0.4c0.2,0,0.4,0.2,0.7,0.2l0,0c0.2,0,0.5,0.2,0.7,0.2c0.2,0,0.2,0,0.4,0
				c0.4,0.2,0.7,0.2,1.2,0.2c0.2,0,0.4,0,0.4,0l0,0l0,0l0,0c0,0,0,0,0.2,0l0,0l0,0l0,0c0.4,0,0.9-0.2,1.2-0.2
				c0.4-0.2,0.9-0.2,1.2-0.4c0.4,0,0.5-0.2,0.9-0.2h0.2c0.2,0,0.4,0,0.4-0.2c0.2,0,0.5-0.2,0.7-0.2c0.2,0,0.4-0.2,0.7-0.2
				c0.4-0.2,0.9-0.4,1.2-0.4l0,0c0.7-0.2,1.4-0.5,2.1-0.7c0.2,0,0.4-0.2,0.7-0.4l0,0l0,0c0,0,0.2,0,0.2-0.2c0.5-0.2,1.1-0.5,1.8-0.7
				c0.4-0.2,0.7-0.4,1.1-0.5c0.4-0.2,0.7-0.4,1.1-0.5c0.2-0.2,0.4-0.2,0.7-0.4c0.2-0.2,0.4-0.2,0.5-0.4c0.2,0,0.2-0.2,0.4-0.2
				c0.2-0.2,0.5-0.4,0.7-0.5l0,0c0.2-0.2,0.4-0.2,0.5-0.4c0.4-0.2,0.5-0.4,0.9-0.5c0.7-0.4,1.4-0.9,1.9-1.2l0,0
				c0.2-0.2,0.5-0.4,0.7-0.5l0,0c0.4-0.4,0.7-0.5,1.1-0.9l0,0c0,0,0.2,0,0.2-0.2l0,0c0.2-0.2,0.4-0.4,0.5-0.5l0,0
				c0.4-0.4,0.7-0.7,1.1-0.9c0.2-0.2,0.4-0.4,0.5-0.5c0,0,0,0,0.2-0.2s0.5-0.4,0.7-0.7c0.2-0.2,0.4-0.4,0.5-0.5
				c0.2-0.2,0.5-0.4,0.7-0.7c0.2-0.2,0.4-0.4,0.5-0.5l0,0c0.2-0.2,0.2-0.2,0.4-0.4c0,0,0.2-0.2,0.2-0.4c0.2-0.2,0.4-0.4,0.4-0.4
				c0.2-0.2,0.2-0.2,0.4-0.4c0,0,0-0.2,0.2-0.2c1.1-1.2,2.1-2.5,3-3.7c1.9-2.6,3.7-5.4,5.1-8.6c0.2-0.4,0.4-0.7,0.5-1.1
				c0.2-0.2,0.2-0.4,0.4-0.5c0.2-0.4,0.4-0.5,0.4-0.7c0.2-0.2,0.4-0.5,0.4-0.7c0.2-0.4,0.4-0.5,0.5-0.9c0,0,0,0,0-0.2l0,0
				c1.1-1.9,2.3-3.7,3.5-5.3c0-0.2,0.2-0.2,0.2-0.4l0,0c0,0,0-0.2,0.2-0.2c0.2-0.2,0.4-0.4,0.5-0.5c0,0,0,0,0.2-0.2l0,0l0,0
				c0-0.2,0.2-0.2,0.2-0.4c0.2-0.2,0.4-0.5,0.7-0.7l0.2-0.2l0,0c0.4-0.4,0.5-0.5,0.9-0.9l0.2-0.2c0.2-0.2,0.4-0.4,0.5-0.5l0.2-0.2
				c0.2-0.2,0.2-0.2,0.4-0.4l0.4-0.4l0,0c0.2-0.2,0.4-0.4,0.5-0.5l0.2-0.2l0.2-0.2l0,0c0.2-0.2,0.2-0.2,0.4-0.4
				c0.2-0.2,0.2-0.2,0.4-0.4c0.4-0.4,0.7-0.7,1.2-1.1c0.4-0.2,0.5-0.5,0.9-0.7c0,0,0.2-0.2,0.4-0.2c0,0,0.2-0.2,0.4-0.2
				c0.2-0.2,0.4-0.2,0.5-0.4c0.2-0.2,0.4-0.4,0.7-0.5c0.4-0.2,0.7-0.5,1.1-0.7c0.2-0.2,0.4-0.2,0.5-0.4l0.2-0.2
				c0.2-0.2,0.5-0.4,0.7-0.5l0.2-0.2c0.2-0.2,0.5-0.4,0.7-0.5L172.3,5.5z"/>
		</g>
		<g>
			<path class="st1" d="M161.4,184.5c-0.5,0.9-1.2,1.8-1.8,2.6c-3.3,4.6-6.8,8.9-10.9,13.2c-2.8,3-5.8,5.8-8.8,8.6
				c-0.2,0.2-0.4,0.4-0.5,0.5c-1.6,1.2-3,2.6-4.6,3.9c-4.2,3.3-8.4,6.3-13,9.1c-0.5,0.4-0.9,0.5-1.4,0.9c-0.9,0.5-1.8,1.1-2.6,1.6
				c-0.5-0.2-0.9-0.5-1.4-0.7c-0.4-0.2-0.9-0.5-1.2-0.7c-5.1-3-10-6.3-14.6-10c-1.6-1.2-3.2-2.5-4.6-3.9c-0.2-0.2-0.4-0.4-0.5-0.5
				c-3.2-2.8-6.1-5.6-8.9-8.6c-4.7-5.1-9.1-10.5-13-16.3c0.2,0.2,0.2,0.4,0.4,0.4c0.2,0.2,0.4,0.4,0.5,0.5c0.4,0.4,0.5,0.5,0.9,0.9
				c0.2,0.2,0.5,0.5,0.7,0.7c0.4,0.4,0.7,0.7,0.9,0.9c0.2,0.2,0.4,0.4,0.5,0.4c0.4,0.4,0.5,0.5,0.9,0.9c0.2,0.2,0.4,0.4,0.5,0.5
				c0.2,0.2,0.4,0.2,0.4,0.4c0.4,0.4,0.7,0.7,1.2,1.1c0.2,0,0.2,0.2,0.4,0.4c0.4,0.4,0.7,0.5,1.1,0.9c0,0,0.2,0,0.2,0.2
				c0.2,0.2,0.5,0.4,0.7,0.5c0.2,0.2,0.5,0.4,0.7,0.5c0.4,0.2,0.5,0.5,0.9,0.7l0,0c0.2,0.2,0.5,0.4,0.7,0.5l0,0c0,0,0.2,0,0.2,0.2
				c0.2,0.2,0.4,0.4,0.5,0.4l0,0l0,0c0.2,0.2,0.5,0.4,0.7,0.5c0.4,0.2,0.5,0.4,0.9,0.5c0.2,0.2,0.4,0.2,0.4,0.4l0.2,0.2
				c0.2,0.2,0.4,0.2,0.5,0.4c0,0,0.2,0,0.2,0.2c0,0,0.2,0,0.2,0.2c0,0,0.2,0,0.2,0.2l0.2,0.2c0.2,0.2,0.5,0.4,0.7,0.5
				c0.2,0.2,0.4,0.2,0.5,0.4c0,0,0.2,0,0.2,0.2c0.2,0,0.4,0.2,0.4,0.2s0,0,0.2,0c0,0,0,0,0.2,0l0,0l0,0c0.2,0.2,0.5,0.4,0.7,0.5
				c0.5,0.4,1.1,0.5,1.4,0.9l0.2,0.2c0.2,0.2,0.4,0.2,0.7,0.4c0.2,0.2,0.4,0.2,0.5,0.4l0,0c0.4,0.2,0.9,0.4,1.2,0.7l0.4,0.2l0,0l0,0
				c0.4,0.2,0.7,0.4,1.1,0.5c0,0,0,0,0.2,0c0.2,0,0.4,0.2,0.5,0.2l0,0c0.2,0.2,0.4,0.2,0.7,0.4c0,0,0.2,0,0.2,0.2
				c0.4,0.2,0.7,0.4,1.1,0.5c0.9,0.4,1.9,0.7,2.8,1.2c0.2,0,0.4,0.2,0.7,0.2c0.2,0.2,0.5,0.2,0.7,0.4c0.2,0.2,0.5,0.2,0.7,0.4
				c0.2,0,0.4,0.2,0.5,0.2c0.9,0.4,1.8,0.5,2.5,0.9c0.5,0.2,0.9,0.4,1.4,0.4c0.5,0.2,0.9,0.4,1.4,0.4h0.4c0.2,0,0.2,0,0.4,0.2
				c0.7,0.2,1.6,0.4,2.5,0.5c0.2,0,0.5,0.2,0.7,0.2c0.2,0,0.2,0,0.4,0c0.2,0,0.4,0,0.5,0.2c0.2,0,0.2,0,0.4,0l0,0h0.2
				c0.5,0.2,0.9,0.2,1.4,0.2c0.2,0,0.5-0.2,0.7-0.2c0.2,0,0.4,0,0.7-0.2h0.2c0.2,0,0.2,0,0.4,0l0,0h0.2c0.2,0,0.4,0,0.5-0.2
				c1.1-0.2,2.1-0.5,3.2-0.7c0.4,0,0.5-0.2,0.9-0.2s0.5-0.2,0.9-0.2c0.2,0,0.4,0,0.4-0.2c0.4-0.2,0.7-0.2,1.1-0.4
				c0.5-0.2,1.1-0.4,1.6-0.5c0.4-0.2,0.5-0.2,0.9-0.4c0.2,0,0.4-0.2,0.7-0.2c0.2,0,0.2,0,0.4-0.2h0.2c0.2,0,0.4-0.2,0.5-0.2
				c0.7-0.2,1.4-0.5,2.1-0.7c0.5-0.2,1.1-0.4,1.6-0.7c0.4-0.2,0.7-0.4,1.1-0.4c0.4-0.2,0.5-0.4,0.9-0.4c0.2,0,0.4-0.2,0.5-0.2
				s0.2-0.2,0.4-0.2l0,0c0.2,0,0.4-0.2,0.5-0.2h0.2l0,0c0,0,0,0,0.2,0c0.2-0.2,0.5-0.2,0.7-0.4h0.2l0,0c0,0,0.2,0,0.2-0.2
				c0.2,0,0.4-0.2,0.4-0.2l0,0c0.2,0,0.2,0,0.4-0.2s0.5-0.2,0.7-0.4c0.2,0,0.2-0.2,0.4-0.2c0.4-0.2,0.5-0.4,0.9-0.5c0,0,0,0,0.2,0
				s0.4-0.2,0.5-0.2c0.4-0.2,0.5-0.4,0.9-0.5l0,0c0.4-0.2,0.7-0.4,1.1-0.5l0,0c0.4-0.2,0.9-0.5,1.2-0.7l0,0c0.4-0.2,0.7-0.5,1.2-0.7
				l0,0c0.4-0.2,0.7-0.5,1.1-0.7c0,0,0,0,0.2,0c0.7-0.5,1.6-1.1,2.3-1.6l0,0c0.4-0.4,0.7-0.5,1.1-0.9l0,0c0.4-0.4,0.7-0.5,1.1-0.9
				s0.7-0.5,1.1-0.9c0.2-0.2,0.4-0.4,0.5-0.4c1.1-0.7,1.9-1.6,2.8-2.5c0.7-0.7,1.4-1.2,2.1-1.9c0.4-0.4,0.5-0.5,0.9-0.9
				c0.2-0.2,0.5-0.5,0.7-0.7c0,0,0,0,0.2-0.2l0,0c0.2-0.2,0.4-0.4,0.5-0.5C161.2,184.6,161.2,184.5,161.4,184.5z"/>
		</g>
		<g>
			<path class="st1" d="M111.3,99.7c-20.3,17.5-35.4,41.2-42.5,68.1c-0.5-0.7-1.2-1.6-1.8-2.5c-1.6-2.5-3.2-4.9-4.6-7.5l0,0
				c-6.1-11.1-9.6-23.7-10.2-37.2c0-0.9,0-1.9,0-2.8c0-13.9,3.3-27,9.5-38.6c14.7,2.8,28.4,8.1,41,15.3c0.7,0.4,1.4,0.9,2.1,1.2
				c1.4,0.9,3,1.8,4.4,2.8C110,98.9,110.7,99.2,111.3,99.7z"/>
		</g>
		<g>
			<path class="st1" d="M163,22.6l-0.4,0.5c0.7,1.2,1.4,2.6,1.9,4c0.7,1.6,1.6,3.3,2.1,5.1l0,0c1.6,4.2,3,8.4,3.9,13
				c0.5,2.5,0.9,4.9,1.1,7.5c0.2,2.5,0.4,4.9,0.4,7.4c0,0.4,0,0.5,0,0.9c0,0.9,0,1.8,0,2.5v0.2c0,1.8-0.2,3.3-0.4,5.1
				c0,0.2,0,0.4,0,0.5c0,0.4,0,0.5-0.2,0.9c-1.1,0.2-2.3,0.5-3.3,0.7c-14.6,3.3-28.1,9.1-40.3,16.8l0,0c-1.4,0.9-2.6,1.8-3.9,2.6
				c-2.1,1.4-4.4,3-6.3,4.6c-2.1-1.6-4.2-3.2-6.5-4.6c-1.4-0.9-2.6-1.8-4-2.6c-12.3-7.7-25.8-13.3-40.3-16.8
				c-1.1-0.4-2.3-0.5-3.3-0.7c0-0.2,0-0.2,0-0.4l0,0c0-0.2,0-0.4,0-0.5c0-0.2,0-0.4,0-0.5c-0.2-1.6-0.4-3.3-0.4-4.9v-0.2
				c0-0.9,0-1.6,0-2.5c0-0.4,0-0.7,0-0.9c0-1.9,0.2-3.9,0.2-5.6c0-0.5,0-1.1,0.2-1.6c0.2-0.9,0.2-1.9,0.4-2.8c0-0.2,0-0.4,0-0.4l0,0
				c0.2-1.4,0.4-2.6,0.7-4c0.2-1.2,0.5-2.5,0.7-3.5c0.4-1.4,0.7-2.6,1.1-4c1.1-3.7,2.5-7.4,4.2-10.7c0.4-0.7,0.7-1.4,1.1-2.1l0,0
				c0.4-0.7,0.7-1.2,1.1-1.8C68.3,18.3,64.8,12.4,62,6.1c0.5,0.2,0.9,0.4,1.4,0.5c0.4,0.2,0.7,0.4,1.1,0.7c4.4,3,8.2,6.7,11.4,10.7
				c1.2,1.8,2.5,3.3,3.5,5.3l0,0l0,0l0,0l0,0l0,0c0,0,0,0,0,0.2c-0.2,0.4-0.4,0.5-0.5,0.9c-0.2,0.2-0.2,0.4-0.4,0.5
				c-0.4,0.9-0.9,1.8-1.2,2.6C77,27.6,77,27.8,77,28c0,0.2-0.2,0.4-0.2,0.5v0.2l0,0v0.2c-0.2,0.5-0.4,0.9-0.5,1.4
				C76.2,30.6,76,31,76,31.5c-0.2,0.4-0.2,0.7-0.4,0.9c-0.4,0.9-0.5,1.9-0.9,2.8c0,0.2,0,0.4-0.2,0.4c-0.2,0.9-0.4,1.6-0.5,2.5
				c0,0,0,0.2,0,0.4s-0.2,0.5-0.2,0.7l0,0c0,0.4-0.2,0.9-0.2,1.2c0,0.2,0,0.4,0,0.4c-0.2,0.9-0.4,1.8-0.4,2.6c0,0.2,0,0.4,0,0.5V44
				v0.2c0,0.2,0,0.4,0,0.4c0,0.2,0,0.4,0,0.4V45v0.2v0.2v0.2c0,0.2,0,0.5,0,0.7s0,0.2,0,0.4s0,0.4,0,0.4c0,0.2,0,0.4,0,0.4
				c0,0.2,0,0.5,0,0.7c0,0.4,0,0.7,0,0.9l0,0c0,0.4,0,0.9,0,1.2s0,0.7,0,1.1s0,0.7,0,1.1c0,0.9,0,1.6,0.2,2.5c0,0.4,0,0.5,0,0.9
				c0,0.2,0,0.5,0,0.7c0,0.4,0,0.7,0.2,1.1c0,0.4,0.2,0.7,0.2,1.1c0,0,0,0,0,0.2c0,0.4,0.2,0.7,0.2,1.1s0.2,0.7,0.2,1.2
				c0,0.4,0.2,0.7,0.2,1.2c0,0.2,0,0.4,0.2,0.7c0,0,0,0,0.2,0l0,0c8.8,2.6,17,6,24.9,10.2c0.4,0.2,0.5,0.4,0.9,0.5
				c6.3,3.3,12.3,7.2,17.7,11.4c5.8-4.4,12.1-8.4,18.6-11.9c0.2-0.2,0.5-0.4,0.7-0.4c7.4-3.9,15.1-7,23.3-9.5h0.2
				c0-0.4,0.2-0.7,0.2-0.9s0.2-0.5,0.2-0.7c0.5-2.8,1.1-5.6,1.1-8.6c0-0.2,0-0.4,0-0.4c0-0.2,0-0.4,0-0.4c0-0.4,0-0.5,0-0.9
				c0-0.5,0-1.1,0-1.8c0-0.2,0-0.2,0-0.4c0-0.4,0-0.5,0-0.9c0-0.2,0-0.4,0-0.4c0-0.2,0-0.2,0-0.4s0-0.4,0-0.5c0-0.2,0-0.4,0-0.5
				c0-0.2,0-0.4,0-0.7c0-0.2,0-0.2,0-0.4v-0.2v-0.2c0-0.2,0-0.4,0-0.5c0-0.2,0-0.4,0-0.5c0-0.2,0-0.2,0-0.4s0-0.2,0-0.4l0,0
				c0-0.2,0-0.4,0-0.5c0-0.4,0-0.5-0.2-0.9v-0.2v-0.2c0-0.4-0.2-0.7-0.2-1.1c0-0.2,0-0.4,0-0.5c0-0.2,0-0.4-0.2-0.5
				c0-0.2,0-0.4-0.2-0.5v-0.2v-0.2c0-0.2-0.2-0.5-0.2-0.7s-0.2-0.5-0.2-0.7s-0.2-0.5-0.2-0.7l0,0c0-0.2,0-0.4-0.2-0.5
				c0-0.2,0-0.2,0-0.4s0-0.2,0-0.4s-0.2-0.4-0.2-0.5v-0.2l0,0l0,0c0-0.2-0.2-0.4-0.2-0.5c0-0.2-0.2-0.5-0.2-0.7s0-0.4-0.2-0.4
				c0-0.2-0.2-0.4-0.2-0.5c0-0.2-0.2-0.4-0.2-0.5c0-0.2,0-0.2-0.2-0.4c0-0.2-0.2-0.4-0.2-0.7l-0.9-1.1c0,0,0-0.2-0.2-0.2v-0.2v-0.2
				l0,0l0,0l0,0c0-0.2-0.2-0.4-0.2-0.5c0-0.2-0.2-0.4-0.2-0.5c-0.2-0.5-0.4-1.1-0.5-1.4c-0.2-0.5-0.4-0.9-0.7-1.4c0,0,0-0.2-0.2-0.2
				c0-0.2-0.2-0.2-0.2-0.4s-0.2-0.4-0.2-0.5c-0.2-0.2-0.2-0.4-0.4-0.5c0-0.2-0.2-0.2-0.2-0.4c0,0,0-0.2-0.2-0.2
				c0-0.2-0.2-0.2-0.2-0.4c1.1-1.8,2.3-3.5,3.5-5.3c0-0.2,0.2-0.2,0.2-0.4l0,0c0,0,0-0.2,0.2-0.2c0.2-0.2,0.4-0.5,0.5-0.7l0,0l0,0
				c0-0.2,0.2-0.2,0.2-0.4c0.2-0.2,0.4-0.5,0.7-0.7l0.2-0.2l0,0c0.4-0.4,0.5-0.5,0.9-0.9l0.2-0.2c0.2-0.2,0.4-0.4,0.5-0.5l0.2-0.2
				c0-0.2,0.2-0.2,0.2-0.4l0.4-0.4l0,0c0.2-0.2,0.4-0.4,0.5-0.5l0.2-0.2l0.2-0.2l0,0c0.2-0.2,0.2-0.2,0.4-0.4
				c0.2-0.2,0.2-0.2,0.4-0.4c0.4-0.4,0.7-0.7,1.2-1.1c0.4-0.2,0.5-0.5,0.9-0.7c0,0,0.2-0.2,0.4-0.2c0,0,0.2-0.2,0.4-0.2
				c0.2-0.2,0.4-0.2,0.5-0.4c0.2-0.2,0.4-0.4,0.7-0.5c0.4-0.2,0.7-0.5,1.1-0.7c0.2-0.2,0.4-0.2,0.5-0.4l0.2-0.2
				c0.2-0.2,0.5-0.4,0.7-0.5l0.2-0.2c0.2-0.2,0.5-0.4,0.7-0.5c0.2,0,0.2,0,0.4,0h0.2c0,0,0,0,0,0.2c-0.5,1.1-0.9,2.1-1.4,3.2
				c-2.1,4.4-4.6,8.4-7.2,12.3C163.9,21.5,163.5,22.2,163,22.6z"/>
		</g>
		<g>
			<path class="st2" d="M124.1,99.7c-2.1,1.4-4.4,3-6.5,4.6c-2.1-1.6-4.2-3.2-6.5-4.6c-20.3,17.5-35.4,41.2-42.5,68.1
				c0.7,0.9,1.4,1.8,2.1,2.6c8.4,10.3,19.3,18.6,31.6,24c4.9,2.1,10,3.7,15.3,4.9c5.4-1.2,10.9-3,16-5.3
				c12.1-5.4,22.6-13.5,30.9-23.7c0.7-0.9,1.4-1.8,2.1-2.6c-1.8-7-4.2-13.7-7-20.2C151.4,129,139.1,112.7,124.1,99.7"/>
		</g>
		<g>
			<path class="st1" d="M183.2,117.8c0,1.8,0,3.7-0.2,5.4l0,0c-0.9,12.6-4.4,24.4-10.3,34.9c-1.4,2.5-2.8,4.7-4.4,7
				c-0.5,0.9-1.1,1.6-1.8,2.5c-1.8-7-4.2-13.7-7-20.2c-8.1-18.4-20.3-34.7-35.4-47.9c0.5-0.4,1.2-0.7,1.8-1.2c1.6-1.1,3-1.9,4.6-2.8
				c4.7-2.8,9.6-5.3,14.7-7.5l0,0c1.8-0.9,3.7-1.6,5.4-2.3c0.5-0.2,0.9-0.4,1.4-0.5l0,0c0.5-0.2,1.2-0.4,1.8-0.7
				c0.5-0.2,1.2-0.4,1.8-0.7c0.7-0.2,1.4-0.5,2.1-0.7c1.1-0.4,2.1-0.7,3-0.9c2.3-0.7,4.7-1.4,7-1.9c0.5-0.2,1.2-0.4,1.8-0.4
				c0.4,0,0.5-0.2,0.9-0.2c0.5-0.2,0.9-0.2,1.4-0.4c0.7-0.2,1.2-0.2,1.9-0.4C179.7,90.8,183.2,103.9,183.2,117.8z"/>
		</g>
	</g>
</g>
</svg>
