<?xml version="1.0" encoding="utf-8"?>
<!-- Generator: Adobe Illustrator 22.1.0, SVG Export Plug-In . SVG Version: 6.00 Build 0)  -->
<svg version="1.1" id="Layer_1" xmlns="http://www.w3.org/2000/svg" xmlns:xlink="http://www.w3.org/1999/xlink" x="0px" y="0px"
	 viewBox="0 0 600 231" style="enable-background:new 0 0 600 231;" xml:space="preserve">
<style type="text/css">
	.st0{opacity:0.3;}
	.st1{fill:#F79520;}
	.st2{fill:#FFDBB5;}
	.st3{fill:#30302F;}
	.st4{fill:#FFFFFF;}
</style>
<g>
	<g>
		<g class="st0">
			<path class="st1" d="M59,62.9C59,62.9,59,62.9,59,62.9C59,62.9,59,62.9,59,62.9L59,62.9z"/>
		</g>
		<g>
			<path class="st2" d="M59,62.9L59,62.9L59,62.9L59,62.9l-6.2,9.6v0h0c2,1.2,3.3,3.4,3.3,5.9c0,0.1,0,0.2,0,0.3l0,0.1v0v0v0
				c0,0.1,0,0.2,0,0.3c0,0.1,0,0.2,0,0.3l0,0.1c0,0.1,0,0.2-0.1,0.3L55.9,80l0,0.2l0,0.2l-0.1,0.2l0,0c0,0.1-0.1,0.2-0.1,0.3
				l-0.1,0.2c0,0.1-0.1,0.2-0.1,0.3c0,0.1-0.1,0.2-0.2,0.3c-0.1,0.1-0.1,0.2-0.2,0.3c-0.1,0.1-0.1,0.2-0.2,0.3l-0.2,0.2
				c-0.1,0.1-0.1,0.2-0.2,0.2c-0.1,0.2-0.3,0.3-0.4,0.5l-0.2,0.2l-0.1,0.1l-0.2,0.2c-0.2,0.1-0.4,0.3-0.6,0.4
				c-0.1,0.1-0.2,0.1-0.3,0.2c-0.1,0.1-0.2,0.1-0.3,0.1c-0.1,0-0.2,0.1-0.3,0.1c-0.1,0-0.2,0.1-0.3,0.1c-0.1,0-0.2,0.1-0.3,0.1
				c-0.1,0-0.2,0.1-0.3,0.1C51.2,85,51.1,85,51,85l-0.1,0c-0.1,0-0.2,0-0.3,0.1l0,0c-0.1,0-0.2,0-0.3,0.1l-0.1,0c-0.1,0-0.2,0-0.3,0
				c-0.2,0-0.5,0-0.7,0c-3.4,0-6.2-2.4-6.8-5.7l0,0v0l0,0l0,0l-0.1,0c-0.4,0.2-0.8,0.3-1.2,0.4h0c-0.2,0.1-0.5,0.2-0.7,0.2
				c-0.1,0-0.2,0.1-0.4,0.1c-0.1,0-0.3,0.1-0.4,0.1l-0.2,0.1l-0.1,0c-0.2,0-0.3,0.1-0.5,0.1c-0.2,0.1-0.5,0.1-0.7,0.2
				c-0.2,0-0.4,0.1-0.7,0.1l0,0h0l0,0l-0.2,0c-0.2,0-0.4-0.1-0.7-0.1l-0.2,0c-0.1,0-0.3-0.1-0.4-0.1l0,0c-0.1,0-0.3-0.1-0.4-0.1
				c-0.2,0-0.4-0.1-0.6-0.2c-0.1,0-0.3-0.1-0.4-0.1l-0.1,0l-0.1,0l0,0c-0.1,0-0.2-0.1-0.3-0.1l-0.1,0l0,0l0,0l0,0
				c-0.1,0-0.3-0.1-0.4-0.1c-0.1,0-0.2-0.1-0.3-0.1c-0.1,0-0.2-0.1-0.4-0.1l-0.2-0.1c-0.1,0-0.2-0.1-0.4-0.1l-0.2-0.1l0,0h0l-0.1,0
				c-0.1,0-0.2-0.1-0.3-0.1c-0.1-0.1-0.3-0.1-0.4-0.2l-0.1,0l0,0c-0.1,0-0.2-0.1-0.3-0.1c-0.1-0.1-0.3-0.1-0.4-0.2l-0.2-0.1
				c-0.2-0.1-0.4-0.2-0.5-0.3l-0.2-0.1c-0.2-0.1-0.3-0.2-0.5-0.3l-0.1-0.1c-0.1-0.1-0.3-0.2-0.4-0.2l0,0c-0.1-0.1-0.3-0.1-0.4-0.2
				c-0.2-0.1-0.3-0.2-0.5-0.3L27.5,77l-0.2-0.1l-0.2-0.2l-0.2-0.1c-0.1-0.1-0.2-0.1-0.3-0.2l-0.1,0l0,0l0,0l0,0l0,0l-0.1,0l-0.2-0.2
				c-0.2-0.1-0.3-0.2-0.5-0.4c-0.1-0.1-0.2-0.1-0.3-0.2l0,0l-0.1-0.1h0L25,75.2l-0.2-0.2c-0.3-0.2-0.6-0.5-0.9-0.7
				c-0.2-0.2-0.3-0.3-0.5-0.5c-0.2-0.2-0.5-0.5-0.7-0.7L22.5,73l-0.2-0.2l-0.1-0.1l-0.1-0.1l-0.1-0.1c-0.1-0.1-0.2-0.2-0.2-0.3
				c-0.1-0.1-0.2-0.2-0.3-0.3l0,0l0-0.1l0,0c-0.5-0.6-1-1.3-1.5-1.9c-1-1.4-1.9-2.8-2.7-4.3c-0.3-0.5-0.6-1.1-0.8-1.7
				c-0.1-0.1-0.1-0.2-0.2-0.4l0-0.1l-0.5-0.1l-0.1-0.2c-0.1-0.1-0.1-0.2-0.2-0.3l0-0.1c-0.1,0.2-0.2,0.3-0.3,0.5
				c-0.1,0.1-0.1,0.2-0.2,0.3c-0.2,0.5-0.5,1-0.7,1.5c-0.1,0.1-0.1,0.2-0.1,0.3c0,0.1-0.1,0.2-0.1,0.3l0,0.1l0,0l0,0.1
				c-0.1,0.3-0.2,0.5-0.3,0.8c-0.1,0.2-0.2,0.4-0.2,0.7c-0.1,0.2-0.1,0.4-0.2,0.5c-0.2,0.5-0.3,1.1-0.5,1.6L12.7,70
				c-0.1,0.5-0.2,0.9-0.3,1.4l0,0.2c0,0.1-0.1,0.3-0.1,0.4l0,0c0,0.2-0.1,0.5-0.1,0.7l0,0.2c-0.1,0.5-0.2,1-0.2,1.5
				c0,0.1,0,0.2,0,0.3l0,0.1l0,0.1l0,0.2l0,0.2l0,0.1l0,0.1l0,0.1l0,0.1c0,0.1,0,0.3,0,0.4l0,0.2l0,0.2l0,0.2c0,0.1,0,0.3,0,0.4
				c0,0.2,0,0.4,0,0.5v0c0,0.2,0,0.5,0,0.7c0,0.2,0,0.4,0,0.6c0,0.2,0,0.4,0,0.6c0,0.5,0,0.9,0.1,1.4c0,0.2,0,0.3,0,0.5
				c0,0.1,0,0.3,0,0.4c0,0.2,0,0.4,0.1,0.6c0,0.2,0.1,0.4,0.1,0.6l0,0.1c0,0.2,0.1,0.4,0.1,0.6c0,0.2,0.1,0.4,0.1,0.7
				c0,0.2,0.1,0.4,0.1,0.7c0,0.1,0,0.2,0.1,0.4l0.1,0h0c5,1.5,9.7,3.4,14.2,5.8c0.2,0.1,0.3,0.2,0.5,0.3c3.6,1.9,6.9,4.1,10.1,6.5
				c3.3-2.5,6.9-4.8,10.6-6.8c0.1-0.1,0.3-0.2,0.4-0.2c4.2-2.2,8.6-4,13.3-5.4l0.1,0c0-0.2,0.1-0.4,0.1-0.5c0-0.1,0.1-0.3,0.1-0.4
				c0.3-1.6,0.6-3.2,0.6-4.9l0-0.2l0-0.2c0-0.2,0-0.3,0-0.5c0-0.3,0-0.6,0-1l0-0.2c0-0.2,0-0.3,0-0.5l0-0.2l0-0.2c0-0.1,0-0.2,0-0.3
				c0-0.1,0-0.2,0-0.3c0-0.1,0-0.2,0-0.4l0-0.2l0-0.1l0-0.1c0-0.1,0-0.2,0-0.3c0-0.1,0-0.2,0-0.3l0-0.2l0-0.2l0,0c0-0.1,0-0.2,0-0.3
				c0-0.2,0-0.3-0.1-0.5l0-0.1l0-0.1c0-0.2-0.1-0.4-0.1-0.6c0-0.1,0-0.2,0-0.3c0-0.1,0-0.2-0.1-0.3c0-0.1,0-0.2-0.1-0.3l0-0.1l0-0.1
				c0-0.1-0.1-0.3-0.1-0.4c0-0.1-0.1-0.3-0.1-0.4c0-0.1-0.1-0.3-0.1-0.4l0,0c0-0.1,0-0.2-0.1-0.3l0-0.2l0-0.2c0-0.1-0.1-0.2-0.1-0.3
				l0-0.1l0,0l0,0c0-0.1-0.1-0.2-0.1-0.3c0-0.1-0.1-0.3-0.1-0.4l-0.1-0.2c0-0.1-0.1-0.2-0.1-0.3c0-0.1-0.1-0.2-0.1-0.3l-0.1-0.2
				c0-0.1-0.1-0.2-0.1-0.4L60.7,67l-0.1-0.1l0-0.1l0-0.1l0,0l0,0l0,0c0-0.1-0.1-0.2-0.1-0.3c0-0.1-0.1-0.2-0.1-0.3
				c-0.1-0.3-0.2-0.6-0.3-0.8c-0.1-0.3-0.2-0.5-0.4-0.8l-0.1-0.1l-0.1-0.2l-0.1-0.3c-0.1-0.1-0.1-0.2-0.2-0.3l-0.1-0.2l-0.1-0.1
				L59,62.9"/>
		</g>
		<g>
			<path class="st3" d="M39.5,85.4C39.5,85.4,39.5,85.5,39.5,85.4c0,0.1,0,0.2,0,0.2c-0.2,2-0.5,3.9-1.1,5.7c-0.3,1-0.7,2-1.1,2.9
				c-0.5-1.1-0.9-2.2-1.3-3.4c-0.5-1.6-0.8-3.3-1-5.1c0-0.1,0-0.2,0-0.3v0c0-1.2,1-2.3,2.3-2.3c0.9,0,1.7,0.6,2.1,1.3
				C39.5,84.8,39.5,85.1,39.5,85.4z"/>
		</g>
		<g>
			<path class="st4" d="M56.1,78.4c0,0.1,0,0.2,0,0.3c0,0,0,0.1,0,0.1c0,0,0,0,0,0c0,0,0,0,0,0v0c0,0.1,0,0.2,0,0.3
				c0,0.1,0,0.2,0,0.3c0,0,0,0.1,0,0.1c0,0.1,0,0.2-0.1,0.3c0,0.1,0,0.2-0.1,0.2c0,0,0,0.1,0,0.2c0,0.1,0,0.1,0,0.2
				c0,0.1,0,0.2-0.1,0.2c0,0,0,0,0,0c0,0.1-0.1,0.2-0.1,0.3c0,0.1-0.1,0.1-0.1,0.2c0,0.1-0.1,0.2-0.1,0.3c0,0.1-0.1,0.2-0.2,0.3
				c-0.1,0.1-0.1,0.2-0.2,0.3c-0.1,0.1-0.1,0.2-0.2,0.3c0,0.1-0.1,0.1-0.2,0.2c-0.1,0.1-0.1,0.2-0.2,0.2c-0.1,0.2-0.3,0.3-0.4,0.5
				c-0.1,0.1-0.2,0.2-0.2,0.2c0,0-0.1,0.1-0.1,0.1c-0.1,0.1-0.1,0.1-0.2,0.2c-0.2,0.1-0.4,0.3-0.6,0.4c-0.1,0.1-0.2,0.1-0.3,0.2
				c-0.1,0.1-0.2,0.1-0.3,0.1c-0.1,0-0.2,0.1-0.3,0.1c-0.1,0-0.2,0.1-0.3,0.1c-0.1,0-0.2,0.1-0.3,0.1c-0.1,0-0.2,0.1-0.3,0.1
				C51.2,85,51.1,85,51,85c0,0-0.1,0-0.1,0c-0.1,0-0.2,0-0.3,0.1c0,0,0,0,0,0c-0.1,0-0.2,0-0.3,0.1l-0.1,0c-0.1,0-0.2,0-0.3,0
				c-0.2,0-0.5,0-0.7,0c-3.4,0-6.2-2.4-6.8-5.7c0,0,0,0,0,0v0c0,0,0,0,0,0c0,0,0,0,0,0c-0.1-0.4-0.1-0.7-0.1-1.1
				c0-2.1,1-4.1,2.5-5.3c1.1-0.9,2.4-1.4,3.9-1.5c0.2,0,0.3,0,0.5,0c0.5,0,1.1,0.1,1.6,0.2c0.7,0.2,1.3,0.4,1.9,0.8c0,0,0,0,0.1,0
				c0,0,0,0,0,0v0h0C54.8,73.7,56.1,75.9,56.1,78.4z"/>
		</g>
		<g>
			<circle class="st3" cx="49.2" cy="78.5" r="2.9"/>
		</g>
		<g>
			<path class="st4" d="M31.9,78.4c0,0.4,0,0.7-0.1,1.1c0,0,0,0,0,0v0c0,0,0,0,0,0c0,0.2-0.1,0.4-0.1,0.6c0,0.1-0.1,0.2-0.1,0.3
				c0,0.1-0.1,0.3-0.2,0.4c0,0.1-0.1,0.1-0.1,0.2c0,0.1-0.1,0.1-0.1,0.2c0,0.1-0.1,0.2-0.1,0.3c0,0.1-0.1,0.1-0.1,0.2
				c0,0.1-0.1,0.1-0.1,0.2c0,0.1-0.1,0.1-0.1,0.2c0,0.1-0.1,0.1-0.1,0.2c-0.1,0.1-0.1,0.2-0.2,0.3c-0.1,0.1-0.2,0.2-0.2,0.3
				C30.1,83,30.1,83,30,83.1c0,0-0.1,0.1-0.1,0.1c0,0.1-0.1,0.1-0.2,0.1c0,0-0.1,0.1-0.2,0.1c-0.2,0.2-0.5,0.4-0.7,0.6
				c-0.1,0.1-0.2,0.1-0.3,0.2c-0.1,0-0.1,0.1-0.2,0.1c0,0-0.1,0-0.1,0c0,0-0.1,0-0.1,0c-0.1,0-0.1,0.1-0.2,0.1c0,0-0.1,0-0.1,0.1
				c0,0-0.1,0-0.1,0.1c0,0-0.1,0-0.1,0.1c-0.1,0-0.1,0.1-0.2,0.1c-0.1,0-0.2,0.1-0.3,0.1C27,85,26.8,85,26.6,85c-0.1,0-0.1,0-0.2,0
				c-0.1,0-0.2,0-0.2,0c-0.1,0-0.3,0-0.4,0.1c-0.1,0-0.1,0-0.2,0c-0.1,0-0.1,0-0.2,0c0,0-0.1,0-0.1,0c-0.1,0-0.2,0-0.2,0
				c-0.2,0-0.5,0-0.7,0c-0.1,0-0.2,0-0.3,0c-0.1,0-0.1,0-0.2,0c-0.1,0-0.1,0-0.2,0c0,0,0,0-0.1,0c-0.1,0-0.2,0-0.3-0.1
				c-0.1,0-0.2,0-0.3-0.1c-0.2,0-0.3-0.1-0.5-0.2c-0.1,0-0.2-0.1-0.2-0.1c-0.1,0-0.2-0.1-0.3-0.1c-0.1,0-0.2-0.1-0.2-0.1
				c0,0,0,0,0,0c-0.1,0-0.1-0.1-0.2-0.1c-0.1,0-0.1-0.1-0.2-0.1c-0.1-0.1-0.3-0.2-0.4-0.3c0,0-0.1-0.1-0.1-0.1c0,0,0,0,0,0
				c-0.1-0.1-0.3-0.2-0.4-0.3c-0.1-0.1-0.1-0.1-0.2-0.2c0,0-0.1-0.1-0.1-0.1c0,0-0.1-0.1-0.1-0.1c-0.1-0.1-0.2-0.2-0.3-0.3
				c0,0-0.1-0.1-0.1-0.1c-0.1-0.1-0.2-0.3-0.3-0.4c0-0.1-0.1-0.1-0.1-0.2c-0.2-0.2-0.3-0.5-0.4-0.8c0-0.1-0.1-0.2-0.1-0.3
				c0-0.1-0.1-0.2-0.1-0.3c0-0.1,0-0.1-0.1-0.2c0-0.1,0-0.1-0.1-0.2c0-0.1,0-0.1-0.1-0.2c0-0.1,0-0.2-0.1-0.2c0,0,0,0,0,0
				c0,0,0-0.1,0-0.1c0,0,0,0,0,0c0,0,0,0,0,0c0-0.1,0-0.1,0-0.2c0-0.1,0-0.2-0.1-0.3c0-0.2,0-0.4-0.1-0.6c0,0,0-0.1,0-0.1
				c0-0.1,0-0.2,0-0.3c0-0.1,0-0.2,0-0.3c0-0.1,0-0.1,0-0.2c0-0.2,0-0.3,0-0.4c0-0.1,0-0.2,0-0.3c0-0.3,0.1-0.5,0.2-0.8
				c0-0.1,0.1-0.2,0.1-0.3c0-0.1,0.1-0.2,0.1-0.4c0-0.1,0.1-0.2,0.1-0.3c0-0.1,0.1-0.2,0.1-0.3c0.1-0.1,0.2-0.3,0.2-0.4
				c0,0,0.1-0.1,0.1-0.1c0-0.1,0.1-0.2,0.2-0.2c0.1-0.1,0.1-0.2,0.2-0.2c0.1-0.1,0.1-0.2,0.2-0.2c0,0,0,0,0,0c0,0,0.1-0.1,0.1-0.1
				c0,0,0,0,0,0c0.1-0.1,0.2-0.2,0.3-0.3c0.1-0.1,0.2-0.2,0.3-0.3c0.1-0.1,0.2-0.2,0.3-0.3c0.1-0.1,0.2-0.2,0.4-0.3
				c0.1-0.1,0.2-0.1,0.3-0.2c0,0,0,0,0,0c0,0,0,0,0,0c0,0,0,0,0,0c1-0.6,2.2-0.9,3.4-0.9c1.7,0,3.3,0.6,4.5,1.7
				C31,74.4,31.9,76.3,31.9,78.4z"/>
		</g>
		<g>
			<circle class="st3" cx="25.1" cy="78.5" r="2.9"/>
		</g>
		<g>
			<path class="st1" d="M68.4,53.1L68.4,53.1C68.4,53.1,68.4,53.1,68.4,53.1h-0.1l-0.3,0l-0.1,0c-2.9,0.5-5.6,1.3-8.3,2.3
				c0,0-0.1,0-0.1,0.1c-0.2,0.1-0.4,0.1-0.5,0.2c-0.2,0.1-0.4,0.2-0.7,0.3c-0.1,0-0.2,0.1-0.2,0.1c-0.9,0.4-1.8,0.8-2.6,1.2
				c-0.1,0-0.1,0.1-0.2,0.1c-0.4,0.2-0.9,0.5-1.3,0.7c-1.7,0.9-3.3,2-4.9,3.1c-2.8-0.5-5.6-0.7-8.4-0.9c-1.1,0-2.3-0.1-3.4-0.1
				c0,0-0.1,0-0.1,0c0,0,0,0-0.1,0c-0.8,0-1.6,0-2.5,0c-0.1,0-0.3,0-0.4,0c-3,0.1-6,0.4-8.9,0.9c-0.1,0-0.1-0.1-0.2-0.1
				c-1.5-1.1-3.1-2.1-4.7-3c-1-0.6-2.1-1.1-3.1-1.6c-0.3-0.2-0.7-0.3-1-0.4C16.2,56,16.1,56,16,55.9c-1.4-0.6-2.9-1.1-4.4-1.6
				c0,0,0,0,0,0c-1.8-0.5-3.6-1-5.4-1.3c0,0,0,0,0,0c0,0-0.1,0-0.1,0c0,0,0,0,0,0h0c0,0,0,0-0.1,0c0,0,0,0,0,0h0c0,0-0.1,0-0.1,0
				c0,0,0,0,0,0c0,0,0,0,0,0v0c0,0,0,0,0.1,0c0,0,0,0-0.1,0c0,0,0,0,0,0h0c0,0-0.1,0-0.1,0c0,0,0,0,0,0c0,0,0,0,0,0v0
				c0.3,0.1,0.5,0.2,0.8,0.3c0.2,0.1,0.4,0.2,0.6,0.4c2.5,1.7,4.7,3.8,6.5,6.1c0.7,1,1.4,1.9,2,3v0c0,0,0,0,0,0c0,0,0,0,0,0
				c0,0,0,0,0,0c0,0,0,0,0,0c0,0,0,0,0,0.1c0,0,0,0,0,0.1c0.1,0.1,0.1,0.2,0.2,0.3c0,0.1,0.1,0.1,0.1,0.2c0,0,0,0,0.1,0c0,0,0,0,0,0
				c0,0,0,0-0.1,0c0,0.1,0.1,0.1,0.1,0.2c0,0.1,0.1,0.1,0.1,0.2c0.1,0.1,0.1,0.2,0.2,0.4c0.3,0.6,0.5,1.1,0.8,1.7
				c0.8,1.5,1.7,2.9,2.7,4.3c0.5,0.7,1,1.3,1.5,1.9c0,0,0,0,0,0c0,0,0,0,0,0.1c0,0,0,0,0,0c0.1,0.1,0.2,0.2,0.3,0.3
				c0.1,0.1,0.2,0.2,0.2,0.3c0,0,0,0,0.1,0.1l0.1,0.1c0,0,0.1,0.1,0.1,0.1c0.1,0.1,0.1,0.1,0.2,0.2c0.1,0.1,0.1,0.1,0.2,0.2
				c0.2,0.2,0.5,0.5,0.7,0.7c0.2,0.2,0.3,0.3,0.5,0.5c0.3,0.2,0.6,0.5,0.9,0.7c0.1,0.1,0.1,0.1,0.2,0.2c0.1,0.1,0.2,0.1,0.2,0.2h0
				c0,0,0.1,0.1,0.1,0.1l0,0c0.1,0.1,0.2,0.1,0.3,0.2c0.2,0.1,0.3,0.3,0.5,0.4c0.1,0.1,0.2,0.1,0.2,0.2c0,0,0,0,0.1,0c0,0,0,0,0,0
				c0,0,0,0,0,0c0,0,0,0,0,0c0,0,0,0,0,0c0,0,0,0,0.1,0c0.1,0.1,0.2,0.1,0.3,0.2c0.1,0,0.1,0.1,0.2,0.1c0.1,0.1,0.2,0.1,0.2,0.2
				c0.1,0,0.1,0.1,0.2,0.1c0.1,0,0.1,0.1,0.2,0.1c0.2,0.1,0.3,0.2,0.5,0.3c0.1,0.1,0.3,0.2,0.4,0.2c0,0,0,0,0,0
				c0.1,0.1,0.3,0.2,0.4,0.2c0,0,0.1,0.1,0.1,0.1c0.2,0.1,0.3,0.2,0.5,0.3c0.1,0,0.1,0.1,0.2,0.1c0.2,0.1,0.4,0.2,0.5,0.3
				c0.1,0,0.2,0.1,0.2,0.1c0.1,0.1,0.3,0.1,0.4,0.2c0.1,0,0.2,0.1,0.3,0.1c0,0,0,0,0,0c0,0,0,0,0.1,0c0.1,0.1,0.3,0.1,0.4,0.2
				c0.1,0,0.2,0.1,0.3,0.1c0,0,0.1,0,0.1,0h0c0,0,0,0,0,0c0.1,0,0.1,0.1,0.2,0.1c0.1,0,0.2,0.1,0.4,0.1c0.1,0,0.1,0,0.2,0.1
				c0.1,0,0.2,0.1,0.4,0.1c0.1,0,0.2,0.1,0.3,0.1c0.1,0,0.3,0.1,0.4,0.1c0,0,0,0,0,0c0,0,0,0,0,0c0,0,0,0,0,0c0,0,0,0,0.1,0
				c0.1,0,0.2,0.1,0.3,0.1c0,0,0,0,0,0c0,0,0.1,0,0.1,0c0,0,0.1,0,0.1,0c0.1,0,0.3,0.1,0.4,0.1c0.2,0.1,0.4,0.1,0.6,0.2
				c0.1,0,0.2,0.1,0.4,0.1c0,0,0,0,0,0c0.1,0,0.3,0.1,0.4,0.1c0.1,0,0.1,0,0.2,0c0.2,0.1,0.4,0.1,0.7,0.1c0.1,0,0.2,0,0.2,0
				c0,0,0,0,0,0c0,0,0,0,0,0c0,0,0,0,0,0c0,0,0,0,0.1,0c0,0,0,0,0,0c0,0,0,0,0,0c0,0,0,0,0,0c0.2,0,0.5-0.1,0.7-0.1
				c0.2-0.1,0.5-0.1,0.7-0.2c0.2,0,0.3-0.1,0.5-0.1c0,0,0.1,0,0.1,0c0.1,0,0.2,0,0.2-0.1c0.1,0,0.3-0.1,0.4-0.1
				c0.1,0,0.2-0.1,0.4-0.1c0.2-0.1,0.5-0.2,0.7-0.2c0,0,0,0,0,0c0.4-0.1,0.8-0.3,1.2-0.4c0.1,0,0.2-0.1,0.4-0.2h0c0,0,0,0,0,0
				c0,0,0.1,0,0.1-0.1c0.3-0.1,0.6-0.3,1-0.4c0.2-0.1,0.4-0.2,0.6-0.3c0.2-0.1,0.4-0.2,0.6-0.3c0.1-0.1,0.2-0.1,0.4-0.2
				c0.1-0.1,0.2-0.1,0.3-0.2c0.1,0,0.1-0.1,0.2-0.1c0.1-0.1,0.3-0.2,0.4-0.3c0,0,0,0,0,0c0.1-0.1,0.2-0.1,0.3-0.2
				c0.2-0.1,0.3-0.2,0.5-0.3c0.4-0.2,0.8-0.5,1.1-0.7l0,0c0.1-0.1,0.3-0.2,0.4-0.3c0,0,0,0,0,0c0.2-0.2,0.4-0.3,0.6-0.5c0,0,0,0,0,0
				c0,0,0.1,0,0.1-0.1h0c0.1-0.1,0.2-0.2,0.3-0.3c0,0,0,0,0,0c0.2-0.2,0.4-0.4,0.6-0.5c0.1-0.1,0.2-0.2,0.3-0.3c0,0,0,0,0.1-0.1
				c0.1-0.1,0.3-0.2,0.4-0.4c0.1-0.1,0.2-0.2,0.3-0.3c0.1-0.1,0.3-0.2,0.4-0.4c0.1-0.1,0.2-0.2,0.3-0.3c0,0,0,0,0,0
				c0.1-0.1,0.1-0.1,0.2-0.2c0,0,0.1-0.1,0.1-0.2c0.1-0.1,0.2-0.2,0.2-0.2c0.1-0.1,0.1-0.1,0.2-0.2c0,0,0-0.1,0.1-0.1
				c0.6-0.7,1.2-1.4,1.7-2.1c1.1-1.5,2.1-3.1,2.9-4.9c0.1-0.2,0.2-0.4,0.3-0.6c0.1-0.1,0.1-0.2,0.2-0.3c0.1-0.2,0.2-0.3,0.2-0.4
				c0.1-0.1,0.2-0.3,0.2-0.4c0.1-0.2,0.2-0.3,0.3-0.5c0,0,0,0,0-0.1l0,0c0.6-1.1,1.3-2.1,2-3c0-0.1,0.1-0.1,0.1-0.2c0,0,0,0,0,0
				c0,0,0-0.1,0.1-0.1c0.1-0.1,0.2-0.2,0.3-0.3c0,0,0,0,0.1-0.1c0,0,0,0,0,0c0,0,0,0,0,0c0-0.1,0.1-0.1,0.1-0.2
				c0.1-0.1,0.2-0.3,0.4-0.4c0,0,0.1-0.1,0.1-0.1c0,0,0,0,0,0c0.2-0.2,0.3-0.3,0.5-0.5c0,0,0.1-0.1,0.1-0.1c0.1-0.1,0.2-0.2,0.3-0.3
				c0,0,0.1-0.1,0.1-0.1c0.1-0.1,0.1-0.1,0.2-0.2l0.2-0.2c0,0,0,0,0,0c0.1-0.1,0.2-0.2,0.3-0.3c0,0,0.1-0.1,0.1-0.1
				c0,0,0.1-0.1,0.1-0.1l0,0c0.1-0.1,0.1-0.1,0.2-0.2c0.1-0.1,0.1-0.1,0.2-0.2c0.2-0.2,0.4-0.4,0.7-0.6c0.2-0.1,0.3-0.3,0.5-0.4
				c0,0,0.1-0.1,0.2-0.1c0,0,0.1-0.1,0.2-0.1c0.1-0.1,0.2-0.1,0.3-0.2c0.1-0.1,0.2-0.2,0.4-0.3c0.2-0.1,0.4-0.3,0.6-0.4
				c0.1-0.1,0.2-0.1,0.3-0.2c0,0,0.1-0.1,0.1-0.1c0.1-0.1,0.3-0.2,0.4-0.3l0.1-0.1c0.1-0.1,0.3-0.2,0.4-0.3L68.4,53.1z"/>
		</g>
		<g>
			<path class="st1" d="M62.2,155.1c-0.3,0.5-0.7,1-1,1.5c-1.9,2.6-3.9,5.1-6.2,7.5c-1.6,1.7-3.3,3.3-5,4.9
				c-0.1,0.1-0.2,0.2-0.3,0.3c-0.9,0.7-1.7,1.5-2.6,2.2c-2.4,1.9-4.8,3.6-7.4,5.2c-0.3,0.2-0.5,0.3-0.8,0.5c-0.5,0.3-1,0.6-1.5,0.9
				c-0.3-0.1-0.5-0.3-0.8-0.4c-0.2-0.1-0.5-0.3-0.7-0.4c-2.9-1.7-5.7-3.6-8.3-5.7c-0.9-0.7-1.8-1.4-2.6-2.2
				c-0.1-0.1-0.2-0.2-0.3-0.3c-1.8-1.6-3.5-3.2-5.1-4.9c-2.7-2.9-5.2-6-7.4-9.3c0.1,0.1,0.1,0.2,0.2,0.2c0.1,0.1,0.2,0.2,0.3,0.3
				c0.2,0.2,0.3,0.3,0.5,0.5c0.1,0.1,0.3,0.3,0.4,0.4c0.2,0.2,0.4,0.4,0.5,0.5c0.1,0.1,0.2,0.2,0.3,0.2c0.2,0.2,0.3,0.3,0.5,0.5
				c0.1,0.1,0.2,0.2,0.3,0.3c0.1,0.1,0.2,0.1,0.2,0.2c0.2,0.2,0.4,0.4,0.7,0.6c0.1,0,0.1,0.1,0.2,0.2c0.2,0.2,0.4,0.3,0.6,0.5
				c0,0,0.1,0,0.1,0.1c0.1,0.1,0.3,0.2,0.4,0.3c0.1,0.1,0.3,0.2,0.4,0.3c0.2,0.1,0.3,0.3,0.5,0.4c0,0,0,0,0,0
				c0.1,0.1,0.3,0.2,0.4,0.3c0,0,0,0,0,0c0,0,0.1,0,0.1,0.1c0.1,0.1,0.2,0.2,0.3,0.2l0,0c0,0,0,0,0,0c0.1,0.1,0.3,0.2,0.4,0.3
				c0.2,0.1,0.3,0.2,0.5,0.3c0.1,0.1,0.2,0.1,0.2,0.2c0,0,0.1,0.1,0.1,0.1c0.1,0.1,0.2,0.1,0.3,0.2c0,0,0.1,0,0.1,0.1
				c0,0,0.1,0,0.1,0.1c0,0,0.1,0,0.1,0.1c0,0,0.1,0.1,0.1,0.1c0.1,0.1,0.3,0.2,0.4,0.3c0.1,0.1,0.2,0.1,0.3,0.2c0,0,0.1,0,0.1,0.1
				c0.1,0,0.2,0.1,0.2,0.1c0,0,0,0,0.1,0c0,0,0,0,0.1,0c0,0,0,0,0,0c0,0,0,0,0,0c0.1,0.1,0.3,0.2,0.4,0.3c0.3,0.2,0.6,0.3,0.8,0.5
				c0,0,0.1,0.1,0.1,0.1c0.1,0.1,0.2,0.1,0.4,0.2c0.1,0.1,0.2,0.1,0.3,0.2c0,0,0,0,0,0c0.2,0.1,0.5,0.2,0.7,0.4l0.2,0.1h0
				c0,0,0,0,0,0c0.2,0.1,0.4,0.2,0.6,0.3c0,0,0,0,0.1,0c0.1,0,0.2,0.1,0.3,0.1l0,0c0.1,0.1,0.2,0.1,0.4,0.2c0,0,0.1,0,0.1,0.1
				c0.2,0.1,0.4,0.2,0.6,0.3c0.5,0.2,1.1,0.4,1.6,0.7c0.1,0,0.2,0.1,0.4,0.1c0.1,0.1,0.3,0.1,0.4,0.2c0.1,0.1,0.3,0.1,0.4,0.2
				c0.1,0,0.2,0.1,0.3,0.1c0.5,0.2,1,0.3,1.4,0.5c0.3,0.1,0.5,0.2,0.8,0.2c0.3,0.1,0.5,0.2,0.8,0.2l0.2,0c0.1,0,0.1,0,0.2,0.1
				c0.4,0.1,0.9,0.2,1.4,0.3c0.1,0,0.3,0.1,0.4,0.1c0.1,0,0.1,0,0.2,0c0.1,0,0.2,0,0.3,0.1c0.1,0,0.1,0,0.2,0c0,0,0,0,0,0
				c0,0,0.1,0,0.1,0c0.3,0.1,0.5,0.1,0.8,0.1c0.1,0,0.3-0.1,0.4-0.1c0.1,0,0.2,0,0.4-0.1c0,0,0.1,0,0.1,0c0.1,0,0.1,0,0.2,0h0
				c0,0,0.1,0,0.1,0c0.1,0,0.2,0,0.3-0.1c0.6-0.1,1.2-0.3,1.8-0.4c0.2,0,0.3-0.1,0.5-0.1c0.2,0,0.3-0.1,0.5-0.1c0.1,0,0.2,0,0.2-0.1
				c0.2-0.1,0.4-0.1,0.6-0.2c0.3-0.1,0.6-0.2,0.9-0.3c0.2-0.1,0.3-0.1,0.5-0.2c0.1,0,0.2-0.1,0.4-0.1c0.1,0,0.1,0,0.2-0.1
				c0,0,0.1,0,0.1,0c0.1,0,0.2-0.1,0.3-0.1c0.4-0.1,0.8-0.3,1.2-0.4c0.3-0.1,0.6-0.2,0.9-0.4c0.2-0.1,0.4-0.2,0.6-0.2
				c0.2-0.1,0.3-0.2,0.5-0.2c0.1,0,0.2-0.1,0.3-0.1c0.1,0,0.1-0.1,0.2-0.1l0,0c0.1,0,0.2-0.1,0.3-0.1c0,0,0.1,0,0.1,0c0,0,0,0,0,0
				c0,0,0,0,0.1,0c0.1-0.1,0.3-0.1,0.4-0.2c0,0,0.1,0,0.1,0h0c0,0,0.1,0,0.1-0.1c0.1,0,0.2-0.1,0.2-0.1c0,0,0,0,0,0
				c0.1,0,0.1,0,0.2-0.1c0.1-0.1,0.3-0.1,0.4-0.2c0.1,0,0.1-0.1,0.2-0.1c0.2-0.1,0.3-0.2,0.5-0.3c0,0,0,0,0.1,0
				c0.1,0,0.2-0.1,0.3-0.1c0.2-0.1,0.3-0.2,0.5-0.3c0,0,0,0,0,0c0.2-0.1,0.4-0.2,0.6-0.3c0,0,0,0,0,0c0.2-0.1,0.5-0.3,0.7-0.4
				c0,0,0,0,0,0c0.2-0.1,0.4-0.3,0.7-0.4c0,0,0,0,0,0c0.2-0.1,0.4-0.3,0.6-0.4c0,0,0,0,0.1,0c0.4-0.3,0.9-0.6,1.3-0.9c0,0,0,0,0,0
				c0.2-0.2,0.4-0.3,0.6-0.5c0,0,0,0,0,0c0.2-0.2,0.4-0.3,0.6-0.5c0.2-0.2,0.4-0.3,0.6-0.5c0.1-0.1,0.2-0.2,0.3-0.2
				c0.6-0.4,1.1-0.9,1.6-1.4c0.4-0.4,0.8-0.7,1.2-1.1c0.2-0.2,0.3-0.3,0.5-0.5c0.1-0.1,0.3-0.3,0.4-0.4c0,0,0,0,0.1-0.1c0,0,0,0,0,0
				c0.1-0.1,0.2-0.2,0.3-0.3C62.1,155.2,62.1,155.1,62.2,155.1z"/>
		</g>
		<g>
			<path class="st1" d="M33.6,106.8c-11.6,10-20.2,23.5-24.2,38.8c-0.3-0.4-0.7-0.9-1-1.4c-0.9-1.4-1.8-2.8-2.6-4.3l0,0
				c-3.5-6.3-5.5-13.5-5.8-21.2c0-0.5,0-1.1,0-1.6c0-7.9,1.9-15.4,5.4-22c8.4,1.6,16.2,4.6,23.4,8.7c0.4,0.2,0.8,0.5,1.2,0.7
				c0.8,0.5,1.7,1,2.5,1.6C32.9,106.3,33.3,106.5,33.6,106.8z"/>
		</g>
		<g>
			<path class="st1" d="M63.1,62.8l-0.2,0.3c0.4,0.7,0.8,1.5,1.1,2.3c0.4,0.9,0.9,1.9,1.2,2.9c0,0,0,0,0,0c0.9,2.4,1.7,4.8,2.2,7.4
				c0.3,1.4,0.5,2.8,0.6,4.3c0.1,1.4,0.2,2.8,0.2,4.2c0,0.2,0,0.3,0,0.5c0,0.5,0,1,0,1.4c0,0,0,0.1,0,0.1c0,1-0.1,1.9-0.2,2.9
				c0,0.1,0,0.2,0,0.3c0,0.2,0,0.3-0.1,0.5c-0.6,0.1-1.3,0.3-1.9,0.4c-8.3,1.9-16,5.2-23,9.6c0,0,0,0,0,0c-0.8,0.5-1.5,1-2.2,1.5
				c-1.2,0.8-2.5,1.7-3.6,2.6c-1.2-0.9-2.4-1.8-3.7-2.6c-0.8-0.5-1.5-1-2.3-1.5c-7-4.4-14.7-7.6-23-9.6c-0.6-0.2-1.3-0.3-1.9-0.4
				c0-0.1,0-0.1,0-0.2v0c0-0.1,0-0.2,0-0.3c0-0.1,0-0.2,0-0.3c-0.1-0.9-0.2-1.9-0.2-2.8c0,0,0-0.1,0-0.1c0-0.5,0-0.9,0-1.4
				c0-0.2,0-0.4,0-0.5c0-1.1,0.1-2.2,0.1-3.2c0-0.3,0-0.6,0.1-0.9c0.1-0.5,0.1-1.1,0.2-1.6c0-0.1,0-0.2,0-0.2c0,0,0,0,0,0
				c0.1-0.8,0.2-1.5,0.4-2.3c0.1-0.7,0.3-1.4,0.4-2c0.2-0.8,0.4-1.5,0.6-2.3c0.6-2.1,1.4-4.2,2.4-6.1c0.2-0.4,0.4-0.8,0.6-1.2
				c0,0,0,0,0,0c0.2-0.4,0.4-0.7,0.6-1c-2.4-3.1-4.4-6.5-6-10.1c0.3,0.1,0.5,0.2,0.8,0.3c0.2,0.1,0.4,0.2,0.6,0.4
				c2.5,1.7,4.7,3.8,6.5,6.1c0.7,1,1.4,1.9,2,3v0c0,0,0,0,0,0c0,0,0,0,0,0c0,0,0,0,0,0c0,0,0,0,0,0c0,0,0,0,0,0.1
				c-0.1,0.2-0.2,0.3-0.3,0.5c-0.1,0.1-0.1,0.2-0.2,0.3c-0.2,0.5-0.5,1-0.7,1.5c-0.1,0.1-0.1,0.2-0.1,0.3c0,0.1-0.1,0.2-0.1,0.3
				c0,0,0,0.1,0,0.1c0,0,0,0,0,0c0,0,0,0.1,0,0.1c-0.1,0.3-0.2,0.5-0.3,0.8c-0.1,0.2-0.2,0.4-0.2,0.7c-0.1,0.2-0.1,0.4-0.2,0.5
				c-0.2,0.5-0.3,1.1-0.5,1.6c0,0.1,0,0.2-0.1,0.2c-0.1,0.5-0.2,0.9-0.3,1.4c0,0,0,0.1,0,0.2c0,0.1-0.1,0.3-0.1,0.4c0,0,0,0,0,0
				c0,0.2-0.1,0.5-0.1,0.7c0,0.1,0,0.2,0,0.2c-0.1,0.5-0.2,1-0.2,1.5c0,0.1,0,0.2,0,0.3c0,0,0,0.1,0,0.1c0,0,0,0.1,0,0.1
				c0,0.1,0,0.2,0,0.2c0,0.1,0,0.2,0,0.2c0,0,0,0.1,0,0.1c0,0,0,0.1,0,0.1c0,0,0,0.1,0,0.1c0,0,0,0.1,0,0.1c0,0.1,0,0.3,0,0.4
				c0,0.1,0,0.1,0,0.2c0,0.1,0,0.2,0,0.2c0,0.1,0,0.2,0,0.2c0,0.1,0,0.3,0,0.4c0,0.2,0,0.4,0,0.5v0c0,0.2,0,0.5,0,0.7
				c0,0.2,0,0.4,0,0.6c0,0.2,0,0.4,0,0.6c0,0.5,0,0.9,0.1,1.4c0,0.2,0,0.3,0,0.5c0,0.1,0,0.3,0,0.4c0,0.2,0,0.4,0.1,0.6
				c0,0.2,0.1,0.4,0.1,0.6c0,0,0,0,0,0.1c0,0.2,0.1,0.4,0.1,0.6c0,0.2,0.1,0.4,0.1,0.7c0,0.2,0.1,0.4,0.1,0.7c0,0.1,0,0.2,0.1,0.4
				c0,0,0,0,0.1,0h0c5,1.5,9.7,3.4,14.2,5.8c0.2,0.1,0.3,0.2,0.5,0.3c3.6,1.9,7,4.1,10.1,6.5c3.3-2.5,6.9-4.8,10.6-6.8
				c0.1-0.1,0.3-0.2,0.4-0.2c4.2-2.2,8.6-4,13.3-5.4c0,0,0.1,0,0.1,0c0-0.2,0.1-0.4,0.1-0.5c0-0.1,0.1-0.3,0.1-0.4
				c0.3-1.6,0.6-3.2,0.6-4.9c0-0.1,0-0.2,0-0.2c0-0.1,0-0.2,0-0.2c0-0.2,0-0.3,0-0.5c0-0.3,0-0.6,0-1c0-0.1,0-0.1,0-0.2
				c0-0.2,0-0.3,0-0.5c0-0.1,0-0.2,0-0.2c0-0.1,0-0.1,0-0.2c0-0.1,0-0.2,0-0.3c0-0.1,0-0.2,0-0.3c0-0.1,0-0.2,0-0.4
				c0-0.1,0-0.1,0-0.2c0,0,0-0.1,0-0.1c0,0,0-0.1,0-0.1c0-0.1,0-0.2,0-0.3c0-0.1,0-0.2,0-0.3c0-0.1,0-0.1,0-0.2c0-0.1,0-0.1,0-0.2
				c0,0,0,0,0,0c0-0.1,0-0.2,0-0.3c0-0.2,0-0.3-0.1-0.5c0,0,0-0.1,0-0.1c0,0,0-0.1,0-0.1c0-0.2-0.1-0.4-0.1-0.6c0-0.1,0-0.2,0-0.3
				c0-0.1,0-0.2-0.1-0.3c0-0.1,0-0.2-0.1-0.3c0,0,0-0.1,0-0.1c0,0,0-0.1,0-0.1c0-0.1-0.1-0.3-0.1-0.4c0-0.1-0.1-0.3-0.1-0.4
				c0-0.1-0.1-0.3-0.1-0.4c0,0,0,0,0,0c0-0.1,0-0.2-0.1-0.3c0-0.1,0-0.1,0-0.2c0-0.1,0-0.1,0-0.2c0-0.1-0.1-0.2-0.1-0.3
				c0,0,0-0.1,0-0.1c0,0,0,0,0,0c0,0,0,0,0,0c0-0.1-0.1-0.2-0.1-0.3c0-0.1-0.1-0.3-0.1-0.4c0-0.1,0-0.2-0.1-0.2
				c0-0.1-0.1-0.2-0.1-0.3c0-0.1-0.1-0.2-0.1-0.3c0-0.1,0-0.1-0.1-0.2c0-0.1-0.1-0.2-0.1-0.4L60.7,67c0,0,0-0.1-0.1-0.1
				c0,0,0-0.1,0-0.1c0,0,0-0.1,0-0.1c0,0,0,0,0,0c0,0,0,0,0,0c0,0,0,0,0,0c0-0.1-0.1-0.2-0.1-0.3c0-0.1-0.1-0.2-0.1-0.3
				c-0.1-0.3-0.2-0.6-0.3-0.8c-0.1-0.3-0.2-0.5-0.4-0.8c0,0,0-0.1-0.1-0.1c0-0.1-0.1-0.1-0.1-0.2c0-0.1-0.1-0.2-0.1-0.3
				c-0.1-0.1-0.1-0.2-0.2-0.3c0-0.1-0.1-0.1-0.1-0.2c0,0,0-0.1-0.1-0.1c0-0.1-0.1-0.1-0.1-0.2c0.6-1,1.3-2,2-3
				c0-0.1,0.1-0.1,0.1-0.2c0,0,0,0,0,0c0,0,0-0.1,0.1-0.1c0.1-0.1,0.2-0.3,0.3-0.4c0,0,0,0,0,0c0,0,0,0,0,0c0-0.1,0.1-0.1,0.1-0.2
				c0.1-0.1,0.2-0.3,0.4-0.4c0,0,0.1-0.1,0.1-0.1c0,0,0,0,0,0c0.2-0.2,0.3-0.3,0.5-0.5c0,0,0.1-0.1,0.1-0.1c0.1-0.1,0.2-0.2,0.3-0.3
				c0,0,0.1-0.1,0.1-0.1c0-0.1,0.1-0.1,0.1-0.2l0.2-0.2c0,0,0,0,0,0c0.1-0.1,0.2-0.2,0.3-0.3c0,0,0.1-0.1,0.1-0.1
				c0,0,0.1-0.1,0.1-0.1l0,0c0.1-0.1,0.1-0.1,0.2-0.2c0.1-0.1,0.1-0.1,0.2-0.2c0.2-0.2,0.4-0.4,0.7-0.6c0.2-0.1,0.3-0.3,0.5-0.4
				c0,0,0.1-0.1,0.2-0.1c0,0,0.1-0.1,0.2-0.1c0.1-0.1,0.2-0.1,0.3-0.2c0.1-0.1,0.2-0.2,0.4-0.3c0.2-0.1,0.4-0.3,0.6-0.4
				c0.1-0.1,0.2-0.1,0.3-0.2c0,0,0.1-0.1,0.1-0.1c0.1-0.1,0.3-0.2,0.4-0.3l0.1-0.1c0.1-0.1,0.3-0.2,0.4-0.3c0.1,0,0.1,0,0.2,0
				c0,0,0.1,0,0.1,0c0,0,0,0,0,0.1c-0.3,0.6-0.5,1.2-0.8,1.8c-1.2,2.5-2.6,4.8-4.1,7C63.6,62.2,63.4,62.6,63.1,62.8z"/>
		</g>
		<g>
			<path class="st2" d="M40.9,106.8c-1.2,0.8-2.5,1.7-3.7,2.6c-1.2-0.9-2.4-1.8-3.7-2.6c-11.6,10-20.2,23.5-24.2,38.8
				c0.4,0.5,0.8,1,1.2,1.5c4.8,5.9,11,10.6,18,13.7c2.8,1.2,5.7,2.1,8.7,2.8c3.1-0.7,6.2-1.7,9.1-3c6.9-3.1,12.9-7.7,17.6-13.5
				c0.4-0.5,0.8-1,1.2-1.5c-1-4-2.4-7.8-4-11.5C56.5,123.5,49.5,114.2,40.9,106.8"/>
		</g>
		<g>
			<path class="st1" d="M74.6,117.1c0,1,0,2.1-0.1,3.1v0c-0.5,7.2-2.5,13.9-5.9,19.9c-0.8,1.4-1.6,2.7-2.5,4c-0.3,0.5-0.6,0.9-1,1.4
				c-1-4-2.4-7.8-4-11.5c-4.6-10.5-11.6-19.8-20.2-27.3c0.3-0.2,0.7-0.4,1-0.7c0.9-0.6,1.7-1.1,2.6-1.6c2.7-1.6,5.5-3,8.4-4.3
				c0,0,0,0,0,0c1-0.5,2.1-0.9,3.1-1.3c0.3-0.1,0.5-0.2,0.8-0.3c0,0,0,0,0,0c0.3-0.1,0.7-0.2,1-0.4c0.3-0.1,0.7-0.2,1-0.4
				c0.4-0.1,0.8-0.3,1.2-0.4c0.6-0.2,1.2-0.4,1.7-0.5c1.3-0.4,2.7-0.8,4-1.1c0.3-0.1,0.7-0.2,1-0.2c0.2,0,0.3-0.1,0.5-0.1
				c0.3-0.1,0.5-0.1,0.8-0.2c0.4-0.1,0.7-0.1,1.1-0.2C72.6,101.7,74.6,109.2,74.6,117.1z"/>
		</g>
	</g>
	<g>
		<g>
			<g>
				<path class="st4" d="M156.7,82.2c-1.2,0-2.1,0.9-2.1,2.1V123c0,7.7-1,12.2-3.5,15.2c-2.5,3-6.4,4.3-13.1,4.6l0,0l0,0l0,0l0,0
					c-6.7-0.3-10.6-1.7-13.1-4.6c-2.4-2.9-3.5-7.5-3.5-15.2V84.3c0-1.2-0.9-2.1-2.1-2.1c-1.2,0-2.1,0.9-2.1,2.1v39.3
					c0,8.3,1.3,13.9,4.2,17.4c2.9,3.5,7.5,5.4,14.7,5.8c0.6,0,1.2,0.1,1.8,0.1c0.6,0,1.2,0,1.8-0.1c7.2-0.5,11.8-2.3,14.7-5.8
					c2.9-3.5,4.2-9.1,4.2-17.4V84.3C158.8,83,157.9,82.2,156.7,82.2z"/>
			</g>
			<g>
				<path class="st4" d="M194.1,110.8c-8-3.5-15.5-6.7-15.5-13.6c0-3.9,1.8-7,5.2-9.2c2.8-1.8,6.6-2.7,10.7-2.7
					c6.2,0,10.1,1.7,12.3,2.7l0.1,0c1.2,0.5,2.2,0.9,2.9,0.9c1,0,1.7-0.8,1.7-1.9c0-0.5,0-1.3-2-2.3c-2.4-1.3-7.6-3.4-15-3.4
					c-9.8,0-20.3,5-20.3,15.9c0,9.5,9.3,13.6,18.4,17.6l0.7,0.3c8.2,3.6,16,7,16,14.1c0,8-6.9,13.5-16.7,13.5
					c-6.9,0-12.8-2.4-16.4-4.4c-0.3-0.1-0.5-0.3-0.8-0.4l0,0c-1-0.5-1.7-0.9-2.3-0.9c-1.1,0-1.9,0.8-1.9,1.9c0,1,0.4,1.6,1.6,2.3
					c6.1,3.6,13.1,5.5,19.8,5.5c12.2,0,21-7.4,21-17.5c0-9.1-8.9-13.8-18.9-18.2L194.1,110.8z"/>
			</g>
			<g>
				<path class="st4" d="M274.8,137.2c-0.6,0-1.2,0.2-2.1,0.7l-0.2,0.1c-2.7,1.2-11,4.9-19.5,4.9c-6.1,0-11.7-2.4-15.8-6.8
					c-4.1-4.4-6.5-10.3-7-17.2l-0.1-0.9l0-0.7l0.7,0l0.9,0c15.5-0.1,25.5-1.3,32.4-3.8c4-1.4,6.9-3.3,8.9-5.6
					c2.1-2.5,3.1-5.5,3.1-9.2c0-8.4-8.5-17.4-22.3-17.4c-8.4,0-15.5,3.1-20.5,8.9c-5.1,5.9-7.7,14.2-7.7,24.1
					c0,19.5,11,32.5,27.3,32.5c11.1,0,21.3-5.2,21.9-5.5c1.5-0.9,1.7-1.6,1.7-2.2C276.5,138.1,275.7,137.2,274.8,137.2z
					 M229.9,112.9l0-0.9c0.3-8.1,2.7-14.9,6.8-19.5c4.2-4.6,10.1-7.1,17.1-7.1c11.7,0,18,7.8,18,13.4c0,10.5-11.3,14.6-40.4,14.8
					l-0.9,0l-0.7,0L229.9,112.9z"/>
			</g>
			<g>
				<path class="st4" d="M374.4,142h-39.3h-1.6h-1.2l0.6-1l0.9-1.4c5.6-8.5,28.3-37.1,36-46.6c2.8-3.5,4.2-5.3,4.2-8.2
					c0-2.1-1.5-2.6-2.7-2.6h-41.2c-1.3,0-2.2,0.8-2.2,1.9c0,1.2,0.9,2.1,2.2,2.1h36.5h1.8h1.3l-0.8,1l-1.1,1.4
					c-2.6,3.3-5.5,7-8.6,10.9c-9.9,12.4-21.1,26.5-27.1,35.5c-0.3,0.4-0.5,0.7-0.7,1.1l0,0.1c-2,2.9-3.4,5-3.4,7.3
					c0,1.7,0.9,2.6,2.7,2.6h43.8c1.3,0,2.2-0.8,2.2-2.1C376.6,142.8,375.7,142,374.4,142z"/>
			</g>
			<g>
				<path class="st4" d="M412.2,81.3c-16.4,0-27.3,13.3-27.3,33c0,19.5,11,32.5,27.3,32.5c8.3,0,15.2-3,20-8.7
					c4.9-5.7,7.5-14,7.5-23.8C439.7,94.6,428.6,81.3,412.2,81.3z M429.3,135.1c-4.1,5.1-10,7.7-17.1,7.7c-14,0-23.1-11.2-23.1-28.5
					c0-17.6,9-29,23.1-29c7,0,12.9,2.8,17,8c4,5.1,6.2,12.4,6.2,21C435.4,123,433.3,130.2,429.3,135.1z"/>
			</g>
			<g>
				<path class="st4" d="M479,81.3c-16.4,0-27.3,13.3-27.3,33c0,19.5,11,32.5,27.3,32.5c8.3,0,15.2-3,20-8.7
					c4.9-5.7,7.5-14,7.5-23.8C506.5,94.6,495.5,81.3,479,81.3z M496.1,135.1c-4.1,5.1-10,7.7-17.1,7.7c-14,0-23.1-11.2-23.1-28.5
					c0-17.6,9-29,23.1-29c7,0,12.9,2.8,17,8c4,5.1,6.2,12.4,6.2,21C502.2,123,500.1,130.2,496.1,135.1z"/>
			</g>
			<g>
				<path class="st4" d="M319,81.8L319,81.8L319,81.8L319,81.8c-0.2-0.2-0.4-0.2-0.6-0.3c0,0-0.1,0-0.2,0l0,0
					c-0.7-0.1-1.4-0.1-2.2-0.2c-0.2,0-0.4,0-0.5,0c-6,0-11.6,2.3-15.9,6.5c-4.3,4.3-6.7,10-6.7,16.1v39.1c0,1.2,0.9,2.1,2.1,2.1
					s2.1-0.9,2.1-2.1v-33.5v0v0l0,0l0,0l0,0l0-8.4v-0.1v-0.1l0-0.1l0-0.1c1-4.3,3.4-8.2,6.8-11c3.5-2.8,7.9-4.4,12.4-4.4
					c0.1,0,0.2,0,0.4,0h0.4h0h0l0,0l0,0l0.1,0l0.1,0l0.2,0h0.1l0,0l0,0c0,0,0,0,0,0c0,0,0,0,0.1,0c0.1,0,0.2,0,0.3,0
					c0.9-0.2,1.6-1,1.6-2c0-0.5-0.2-0.9-0.4-1.2C319.2,82,319.1,81.9,319,81.8z"/>
			</g>
			<g>
				<path class="st4" d="M577.6,81.3c-0.5,0-1,0-1.4,0l0,0l0,0h0h0h0h0l0,0l0,0c-0.4,0-0.8,0-1.3,0c-5.9,0-11.7,1.6-16.7,4.7
					l-0.2,0.1l-0.1,0.1c-0.2,0.1-0.4,0.3-0.7,0.4l-0.5,0.3l-0.4,0.2l-0.4-0.2l-0.5-0.3l0,0l0,0l0,0c-0.7-0.5-1.4-0.9-2.2-1.3
					c-4.7-2.6-10-4-15.4-4c-0.5,0-1,0-1.4,0c-6.2,0.3-11.6,2.6-15,4.5c0,0,0,0,0,0c-2.4,1.4-4.6,3.2-6.5,5.2v52.8
					c0,1.2,0.9,2.1,2.1,2.1c1.2,0,2.1-0.9,2.1-2.1V91.6v-0.5v-0.3l0.3-0.2l0.4-0.3c3.8-2.4,10.2-5,17-5c7.2,0,11.7,1.3,14.6,4.3
					c3,3.1,4.3,7.9,4.3,16v38.3c0,1.2,0.9,2.1,2.1,2.1c1.2,0,2.1-0.9,2.1-2.1v-38.8c0-5.8-0.7-9.8-2.2-13.2l-0.4-0.8l-0.3-0.5
					l0.5-0.3l0.7-0.4c0.9-0.5,1.9-0.9,2.9-1.3c5-2,10.7-3.2,15.6-3.2c7.4,0,12.1,1.4,15,4.5c3,3.1,4.3,8,4.3,15.8v38.3
					c0,1.2,0.9,2.1,2.1,2.1c1.2,0,2.1-0.9,2.1-2.1v-38.8c0-5.9-0.8-10.5-2.3-14C594.6,84.3,588.4,81.3,577.6,81.3z"/>
			</g>
			<g>
				<path class="st4" d="M294.8,167.1h-3.3c-0.6,0-1-0.3-1-0.8c0-0.5,0.4-0.8,1-0.8h8.8c0.6,0,1,0.3,1,0.8c0,0.5-0.4,0.8-1,0.8h-3.4
					v9.7c0,0.5-0.5,0.9-1.1,0.9c-0.6,0-1.1-0.4-1.1-0.9V167.1z"/>
				<path class="st4" d="M313.5,172.1h-6.2v4.7c0,0.5-0.5,0.9-1.1,0.9c-0.6,0-1.1-0.4-1.1-0.9v-10.5c0-0.5,0.5-0.8,1.1-0.8
					c0.6,0,1.1,0.3,1.1,0.8v4.1h6.2v-4.1c0-0.5,0.5-0.8,1.1-0.8c0.6,0,1.1,0.3,1.1,0.8v10.5c0,0.5-0.5,0.9-1.1,0.9
					c-0.6,0-1.1-0.4-1.1-0.9V172.1z"/>
				<path class="st4" d="M322.4,177.7c-0.6,0-1-0.3-1-0.8v-10.6c0-0.5,0.4-0.8,1-0.8h6c0.6,0,1,0.3,1,0.8c0,0.5-0.4,0.8-1,0.8h-4.9
					v3.3h4.5c0.6,0,1,0.3,1,0.8c0,0.5-0.4,0.8-1,0.8h-4.5v3.9h5.4c0.6,0,1,0.3,1,0.8c0,0.5-0.4,0.8-1,0.8H322.4z"/>
				<path class="st4" d="M351.7,166.3c0-0.5,0.5-0.8,1.1-0.8c0.6,0,1.1,0.3,1.1,0.8v7.3c0,1.3-0.7,4.2-5.2,4.2
					c-4.5,0-5.2-2.9-5.2-4.2v-7.3c0-0.5,0.5-0.8,1.1-0.8c0.6,0,1,0.3,1,0.8v7.3c0,0.9,0.5,2.6,3.1,2.6c2.6,0,3.1-1.7,3.1-2.6V166.3z
					"/>
				<path class="st4" d="M359.9,177.2c-0.2,0.3-0.6,0.5-0.9,0.5c-0.7,0-1-0.4-1-0.8c0-0.2,0.1-0.4,0.2-0.6l4-5.1
					c-1.3-1.7-2.4-3.1-3.7-4.5c-0.2-0.2-0.2-0.4-0.2-0.5c0-0.5,0.5-0.8,1.1-0.8c0.4,0,0.7,0.1,1,0.5c0.8,0.9,1.5,1.8,3,3.7l2.9-3.7
					c0.2-0.3,0.6-0.4,0.9-0.4c0.6,0,1.1,0.3,1.1,0.8c0,0.2,0,0.3-0.2,0.5l-3.4,4.5c1.3,1.6,2.7,3.4,3.8,5.2c0.2,0.2,0.2,0.4,0.2,0.5
					c0,0.5-0.5,0.8-1.1,0.8c-0.5,0-0.8-0.2-1-0.6c-1-1.5-2.1-3-3.1-4.3L359.9,177.2z"/>
				<path class="st4" d="M381.3,166.3c0-0.5,0.5-0.8,1.1-0.8s1.1,0.3,1.1,0.8v10.5c0,0.5-0.5,0.9-1.1,0.9s-1.1-0.4-1.1-0.9V166.3z"
					/>
				<path class="st4" d="M398.2,177.7c-0.4,0-0.9-0.1-1.2-0.3c-0.7-0.5-1.4-1.6-2.3-3c-0.5-0.8-1.1-1.8-1.6-2.7
					c-0.5-0.9-1-1.8-1.5-2.7c-0.1-0.3-0.3-0.5-0.4-0.6v8.5c0,0.5-0.5,0.9-1.1,0.9c-0.6,0-1.1-0.4-1.1-0.9v-10.5
					c0-0.5,0.5-0.9,1.1-0.9h0.3c1.8,0,2.9,2.5,3.7,3.9c0.4,0.7,0.8,1.4,1.1,2.1c0.7,1.2,1.1,2,1.5,2.7c0.1,0.2,0.4,0.6,0.5,0.7v-8.5
					c0-0.5,0.5-0.9,1.1-0.9c0.6,0,1.1,0.4,1.1,0.9v10.5c0,0.5-0.5,0.9-1.1,0.9H398.2z"/>
				<path class="st4" d="M408.7,177.8c-1.8,0-2.8-0.5-4-1.2c-0.3-0.2-0.5-0.4-0.5-0.7c0-0.5,0.5-0.8,1-0.8c0.2,0,0.4,0,0.7,0.2
					c0.5,0.3,1.4,0.9,2.7,0.9c1.7,0,2.7-0.8,2.7-1.9c0-2.3-6.8-2.1-6.8-5.7c0-2,2.2-3.2,4.5-3.2c1.7,0,2.9,0.6,3.6,1
					c0.3,0.2,0.4,0.4,0.4,0.7c0,0.5-0.5,0.8-1,0.8c-0.2,0-0.5-0.1-0.6-0.2c-0.5-0.3-1.3-0.8-2.4-0.8c-1.2,0-2.3,0.7-2.3,1.6
					c0,2.3,6.8,1.9,6.8,5.7C413.6,176.4,411.6,177.8,408.7,177.8z"/>
				<path class="st4" d="M418.4,166.3c0-0.5,0.5-0.8,1.1-0.8c0.6,0,1.1,0.3,1.1,0.8v10.5c0,0.5-0.5,0.9-1.1,0.9
					c-0.6,0-1.1-0.4-1.1-0.9V166.3z"/>
				<path class="st4" d="M435.1,173.2c0-0.3,0-0.4-0.5-0.4h-1.8c-0.6,0-1-0.3-1-0.8c0-0.5,0.4-0.9,1-0.9h1.8c2.2,0,2.7,0.3,2.7,2.1
					v2.8c0,0.3-0.2,0.6-0.6,0.8c-1.4,0.5-3,0.9-4.6,0.9c-3.9,0-6.8-2.6-6.8-6.2c0-3.6,3-6.2,7-6.2c2,0,3.1,0.4,4.1,0.9
					c0.4,0.2,0.5,0.4,0.5,0.8c0,0.5-0.5,0.9-1.1,0.9c-0.2,0-0.3,0-0.4-0.1c-0.8-0.4-1.7-0.7-3.1-0.7c-2.7,0-4.8,2-4.8,4.6
					c0,2.6,1.9,4.5,4.5,4.5c1,0,2.1-0.2,3-0.5V173.2z"/>
				<path class="st4" d="M450.8,172.1h-6.2v4.7c0,0.5-0.5,0.9-1.1,0.9c-0.6,0-1.1-0.4-1.1-0.9v-10.5c0-0.5,0.5-0.8,1.1-0.8
					c0.6,0,1.1,0.3,1.1,0.8v4.1h6.2v-4.1c0-0.5,0.5-0.8,1.1-0.8c0.6,0,1.1,0.3,1.1,0.8v10.5c0,0.5-0.5,0.9-1.1,0.9
					c-0.6,0-1.1-0.4-1.1-0.9V172.1z"/>
				<path class="st4" d="M461.2,167.1h-3.3c-0.6,0-1-0.3-1-0.8c0-0.5,0.4-0.8,1-0.8h8.8c0.6,0,1,0.3,1,0.8c0,0.5-0.4,0.8-1,0.8h-3.4
					v9.7c0,0.5-0.5,0.9-1.1,0.9c-0.6,0-1.1-0.4-1.1-0.9V167.1z"/>
				<path class="st4" d="M475.1,177.8c-1.8,0-2.8-0.5-4-1.2c-0.3-0.2-0.5-0.4-0.5-0.7c0-0.5,0.5-0.8,1-0.8c0.2,0,0.4,0,0.7,0.2
					c0.5,0.3,1.4,0.9,2.7,0.9c1.7,0,2.7-0.8,2.7-1.9c0-2.3-6.8-2.1-6.8-5.7c0-2,2.2-3.2,4.5-3.2c1.7,0,2.9,0.6,3.6,1
					c0.3,0.2,0.4,0.4,0.4,0.7c0,0.5-0.5,0.8-1,0.8c-0.2,0-0.5-0.1-0.6-0.2c-0.5-0.3-1.3-0.8-2.4-0.8c-1.2,0-2.3,0.7-2.3,1.6
					c0,2.3,6.8,1.9,6.8,5.7C480,176.4,478,177.8,475.1,177.8z"/>
				<path class="st4" d="M499.2,177.8c-3.9,0-6.8-2.7-6.8-6.2c0-3.6,3-6.2,7-6.2c2.4,0,3.9,0.7,4.4,1c0.3,0.2,0.5,0.4,0.5,0.7
					c0,0.5-0.5,0.8-1,0.8c-0.2,0-0.5-0.1-0.6-0.2c-0.3-0.2-1.3-0.7-3.2-0.7c-2.7,0-4.8,2-4.8,4.6c0,2.6,1.9,4.6,4.5,4.6
					c1.2,0,2.3-0.3,3.3-0.8c0.1-0.1,0.4-0.1,0.6-0.1c0.6,0,1.1,0.4,1.1,0.9c0,0.3-0.1,0.5-0.5,0.7
					C502.2,177.4,500.8,177.8,499.2,177.8z"/>
				<path class="st4" d="M508.1,171.6c0-3.6,2.8-6.2,6.5-6.2c3.8,0,6.5,2.6,6.5,6.2c0,3.6-2.7,6.2-6.5,6.2
					C511,177.8,508.1,175.1,508.1,171.6z M519,171.6c0-2.6-1.8-4.6-4.3-4.6c-2.5,0-4.3,2-4.3,4.6c0,2.5,1.8,4.5,4.3,4.5
					C517.2,176.1,519,174.2,519,171.6z"/>
				<path class="st4" d="M533.2,177.4c-0.5,0-1-0.3-1.1-0.8c-0.4-0.9-2-5.5-2.9-7.3l-0.4-0.8l-1.1,8.5c-0.1,0.5-0.5,0.8-1.1,0.8
					c-0.6,0-1.1-0.3-1-1l1.4-10.5c0-0.4,0.4-0.7,1.1-0.7h0.2c0.5,0,0.9,0.2,1.3,0.5c0.9,1,2.7,5.4,3.7,8.2c1.4-3.6,2.8-7,3.7-8.1
					c0.3-0.4,0.8-0.6,1.3-0.6h0.3c0.5,0,1,0.3,1.1,0.7l1.5,10.5c0.1,0.5-0.3,0.9-1,0.9c-0.6,0-1-0.2-1.1-0.8l-1.1-8.5l-0.5,1.1
					c-1.2,2.7-2.6,6.5-2.9,7.1c-0.2,0.5-0.7,0.8-1.1,0.8H533.2z"/>
				<path class="st4" d="M546.3,166.3c0-0.5,0.5-0.9,1.1-0.9h3.4c2.6,0,4.6,1.5,4.6,3.4c0,2.7-2.4,3.7-4.6,3.7h-0.4
					c-0.6,0-1.1-0.3-1.1-0.8c0-0.5,0.5-0.8,1.1-0.8h0.4c1.1,0,2.4-0.5,2.4-2c0-1-1-1.8-2.4-1.8h-2.3v9.7c0,0.5-0.5,0.9-1.1,0.9
					s-1.1-0.4-1.1-0.9V166.3z"/>
				<path class="st4" d="M560.7,174.2c-0.5,1.2-0.8,2.3-1.1,3c-0.2,0.4-0.5,0.5-1,0.5c-0.7,0-1-0.3-1-0.8c0-0.1,0-0.2,0-0.2
					c0.2-0.5,3.1-8.2,4.8-10.6c0.3-0.4,0.6-0.5,1.4-0.5c0.8,0,1.2,0.2,1.4,0.6c1.4,2.3,4.5,9.8,4.8,10.6c0,0.1,0,0.2,0,0.2
					c0,0.5-0.4,0.8-1.1,0.8c-0.5,0-0.8-0.2-0.9-0.5c-0.3-0.6-0.8-1.8-1.2-3H560.7z M566,172.5c-0.8-2-1.4-3.4-2.3-5.1
					c-0.8,1.6-1.4,3.1-2.3,5.1H566z"/>
				<path class="st4" d="M583,177.7c-0.4,0-0.9-0.1-1.2-0.3c-0.7-0.5-1.4-1.6-2.3-3c-0.5-0.8-1.1-1.8-1.6-2.7
					c-0.5-0.9-1-1.8-1.5-2.7c-0.1-0.3-0.3-0.5-0.4-0.6v8.5c0,0.5-0.5,0.9-1.1,0.9c-0.6,0-1.1-0.4-1.1-0.9v-10.5
					c0-0.5,0.5-0.9,1.1-0.9h0.3c1.8,0,2.9,2.5,3.7,3.9c0.4,0.7,0.8,1.4,1.1,2.1c0.7,1.2,1.1,2,1.5,2.7c0.1,0.2,0.4,0.6,0.5,0.7v-8.5
					c0-0.5,0.5-0.9,1.1-0.9s1.1,0.4,1.1,0.9v10.5c0,0.5-0.5,0.9-1.1,0.9H583z"/>
				<path class="st4" d="M592.7,172.9c-0.1-0.1-0.3-0.3-0.5-0.5c-1.3-1.5-3.5-5.3-3.7-5.9c0-0.1-0.1-0.2-0.1-0.3
					c0-0.5,0.4-0.8,1.1-0.8c0.6,0,0.9,0.3,1,0.6c0.2,0.3,2.1,3.9,3.2,5.2c1.2-1.5,3-4.8,3.2-5.2c0.1-0.2,0.4-0.6,1-0.6
					c0.7,0,1.1,0.3,1.1,0.8c0,0.1,0,0.2-0.1,0.3c-0.2,0.6-2.4,4.4-3.7,5.9c-0.2,0.2-0.3,0.3-0.5,0.4v3.9c0,0.5-0.5,0.9-1.1,0.9
					s-1.1-0.4-1.1-0.9V172.9z"/>
			</g>
		</g>
	</g>
</g>
</svg>
